<?xml version="1.0" standalone="no"?>
<!DOCTYPE svg PUBLIC "-//W3C//DTD SVG 1.1//EN" "http://www.w3.org/Graphics/SVG/1.1/DTD/svg11.dtd" >
<svg xmlns="http://www.w3.org/2000/svg" xmlns:xlink="http://www.w3.org/1999/xlink" version="1.1">
<metadata>
Created by FontForge 20161013 at Tue Jan  5 22:32:08 1993
 By ,,,
Copyright 1990-1993 Bitstream Inc.  All rights reserved.
</metadata>
<defs>
<font id="FrizQuadrataITCbyBT-Roman" horiz-adv-x="1024" >
  <font-face 
    font-family="FrizQuadrata BT"
    font-weight="400"
    font-stretch="normal"
    units-per-em="2048"
    panose-1="2 14 6 2 4 5 4 2 4 4"
    ascent="1638"
    descent="-410"
    x-height="973"
    cap-height="1389"
    bbox="-254 -504 2226 1952"
    underline-thickness="131"
    underline-position="-408"
    unicode-range="U+0020-F002"
  />
<missing-glyph horiz-adv-x="1229" 
d="M102 -362v1806h1024v-1806h-1024zM217 -248h795v1577h-795v-1577z" />
    <glyph glyph-name=".notdef" horiz-adv-x="1229" 
d="M102 -362v1806h1024v-1806h-1024zM217 -248h795v1577h-795v-1577z" />
    <glyph glyph-name=".null" horiz-adv-x="0" 
 />
    <glyph glyph-name="nonmarkingreturn" horiz-adv-x="606" 
 />
    <glyph glyph-name="space" unicode=" " horiz-adv-x="606" 
 />
    <glyph glyph-name="exclam" unicode="!" horiz-adv-x="635" 
d="M260 340l-24 803q-1 2 -1 7q-3 160 -65 234h295l-53 -1044h-152zM209 98q0 53 37 90t90 37q52 0 89.5 -37t37.5 -90q0 -52 -37.5 -89.5t-89.5 -37.5q-53 0 -90 37.5t-37 89.5z" />
    <glyph glyph-name="quotedbl" unicode="&#x22;" horiz-adv-x="614" 
d="M524 1436v-555h-139v555h139zM229 1436v-555h-139v555h139z" />
    <glyph glyph-name="numbersign" unicode="#" horiz-adv-x="1575" 
d="M969 858h-260l-93 -264h261zM924 1458l-162 -454h256l164 454h164l-160 -454h301l-51 -146h-303l-93 -262h322l-51 -147h-322l-162 -453h-165l161 453h-258l-162 -453h-165l159 453h-309l53 147h310l92 262h-330l51 146h332l162 454h166z" />
    <glyph glyph-name="dollar" unicode="$" horiz-adv-x="1214" 
d="M541 883v337q-97 -9 -145 -48t-48 -107q0 -57 50.5 -104.5t142.5 -77.5zM541 -184v182h-27q-86 0 -172.5 8.5t-175.5 26.5v235q88 -62 177.5 -92.5t186.5 -30.5h11v514q-211 86 -298 173t-87 206q0 136 102 225.5t283 110.5v166h108l1 -166q67 -1 134 -14t129 -37v-211
q-48 47 -113.5 74t-150.5 35v-383q225 -103 317.5 -203.5t92.5 -237.5q0 -156 -105 -257t-305 -138v-186h-108zM649 154q104 18 160.5 74.5t56.5 142.5q0 71 -46.5 122t-170.5 109v-448z" />
    <glyph glyph-name="percent" unicode="%" horiz-adv-x="1448" 
d="M1092 -29q-136 0 -218.5 91t-82.5 241t82.5 241t218.5 91q135 0 218 -91t83 -241t-83 -241t-218 -91zM965 303q0 -107 31.5 -161t95.5 -54q63 0 95 54t32 161t-32 161t-95 54q-64 0 -95.5 -54t-31.5 -161zM301 -29l725 1436h125l-725 -1436h-125zM354 745q-135 0 -218 91
t-83 241t82.5 240t218.5 90t218.5 -90t82.5 -240t-82.5 -241t-218.5 -91zM227 1073q0 -107 32 -161t95 -54q64 0 95.5 54t31.5 161t-31.5 161t-95.5 54q-63 0 -95 -54t-32 -161z" />
    <glyph glyph-name="ampersand" unicode="&#x26;" horiz-adv-x="1446" 
d="M551 948q69 46 103 97.5t34 109.5t-40 95.5t-103 37.5q-57 0 -95 -37.5t-38 -93.5q0 -41 33 -91t106 -118zM387 836q-81 89 -120.5 163t-39.5 138q0 118 96.5 198t241.5 80q123 0 209 -80.5t86 -195.5q0 -77 -46.5 -155.5t-139.5 -160.5l489 -469q75 -71 203 -163.5
t289 -190.5h-191q-121 0 -223 48.5t-217 162.5q-98 -121 -215 -181.5t-254 -60.5q-196 0 -326.5 118.5t-130.5 295.5q0 112 68 219t221 234zM926 305l-410 404q-100 -81 -146 -156t-46 -156q0 -117 79.5 -195.5t198.5 -78.5q95 0 173 44t151 138z" />
    <glyph glyph-name="quotesingle" unicode="'" horiz-adv-x="317" 
d="M229 1436v-555h-139v555h139z" />
    <glyph glyph-name="parenleft" unicode="(" horiz-adv-x="707" 
d="M666 1421q-152 -268 -219.5 -494t-67.5 -460q0 -203 65.5 -417.5t208.5 -473.5h-139q-152 223 -228.5 455t-76.5 469q0 228 78.5 454.5t240.5 466.5h138z" />
    <glyph glyph-name="parenright" unicode=")" horiz-adv-x="707" 
d="M61 1421h140q162 -240 240.5 -466.5t78.5 -454.5q0 -237 -76.5 -469t-228.5 -455h-139q143 259 208.5 473.5t65.5 417.5q0 232 -67.5 457.5t-221.5 496.5z" />
    <glyph glyph-name="asterisk" unicode="*" horiz-adv-x="1214" 
d="M668 942l-27 -9q2 -86 18.5 -156t49.5 -128h-205q33 58 49.5 128.5t17.5 156.5l-26 8q-84 -54 -136 -102.5t-79 -98.5l-103 177q65 0 135.5 21.5t147.5 64.5v30q-77 43 -147.5 64.5t-135.5 21.5l103 176q27 -49 79 -97.5t136 -102.5l26 6q-1 86 -18 157.5t-49 129.5h205
q-33 -58 -49.5 -129t-18.5 -158l27 -6q84 54 136 102.5t79 97.5l102 -176q-64 0 -133.5 -21t-149.5 -65v-30q80 -44 149.5 -65t133.5 -21l-102 -177q-27 50 -79 98.5t-136 102.5z" />
    <glyph glyph-name="plus" unicode="+" horiz-adv-x="1706" 
d="M924 1221v-541h528v-139h-528v-541h-142v541h-528v139h528v541h142z" />
    <glyph glyph-name="comma" unicode="," horiz-adv-x="606" 
d="M293 -45q-57 7 -89 41t-32 86q0 59 38.5 100t92.5 41q58 0 94.5 -44t36.5 -116q0 -71 -41.5 -147.5t-120.5 -151.5l-100 11q51 59 81 103t40 77z" />
    <glyph glyph-name="hyphen" unicode="-" horiz-adv-x="797" 
d="M76 395l114 164l347 -2h10q29 0 64 4.5t73 13.5l-111 -172h-354q-8 0 -18.5 1.5t-14.5 1.5q-14 0 -52 -4.5t-58 -6.5z" />
    <glyph glyph-name="period" unicode="." horiz-adv-x="606" 
d="M176 98q0 53 37 90t90 37q52 0 89.5 -37t37.5 -90q0 -52 -37.5 -89.5t-89.5 -37.5q-53 0 -90 37.5t-37 89.5z" />
    <glyph glyph-name="slash" unicode="/" horiz-adv-x="569" 
d="M-78 -190l557 1611h113l-555 -1611h-115z" />
    <glyph glyph-name="zero" unicode="0" horiz-adv-x="1214" 
d="M600 -29q-235 0 -389 202.5t-154 520.5q0 314 156.5 514.5t396.5 200.5q236 0 390.5 -203.5t154.5 -521.5q0 -312 -157.5 -512.5t-397.5 -200.5zM621 145q146 0 230.5 136.5t84.5 375.5q0 267 -94.5 427.5t-247.5 160.5q-147 0 -232.5 -136.5t-85.5 -375.5
q0 -266 95 -427t250 -161z" />
    <glyph glyph-name="one" unicode="1" horiz-adv-x="1214" 
d="M395 0q61 51 87 99.5t26 125.5v45v829q-42 3 -85.5 8t-94.5 13q128 64 227.5 145t169.5 181v-1219q0 -74 21 -124.5t67 -102.5h-418z" />
    <glyph glyph-name="two" unicode="2" horiz-adv-x="1214" 
d="M80 0l479 702q11 16 32 47q148 214 148 306q0 86 -62.5 137t-170.5 51q-71 0 -157 -28.5t-189 -86.5l116 248q87 18 156 27.5t117 9.5q190 0 312 -92.5t122 -233.5q0 -67 -37 -149t-147 -244l-353 -514q92 -14 164.5 -21t126.5 -7q92 0 187 22.5t215 73.5l-109 -248h-950
z" />
    <glyph glyph-name="three" unicode="3" horiz-adv-x="1214" 
d="M111 233q114 -44 207.5 -66t170.5 -22q159 0 260 80.5t101 204.5q0 116 -87.5 185t-236.5 69q-37 0 -78 -4.5t-83 -13.5v174q25 -3 50.5 -4.5t49.5 -1.5q141 0 221 56.5t80 156.5q0 91 -69.5 146.5t-184.5 55.5q-65 0 -143.5 -23t-175.5 -71l79 211q93 22 162.5 32.5
t116.5 10.5q188 0 310 -92t122 -232q0 -96 -60.5 -169.5t-179.5 -120.5q170 -56 254 -148.5t84 -222.5q0 -195 -173.5 -319.5t-452.5 -124.5q-53 0 -115.5 4t-132.5 12z" />
    <glyph glyph-name="four" unicode="4" horiz-adv-x="1214" 
d="M639 0q42 52 60 97.5t18 99.5v86h-717l647 1097h271v-946q67 3 130.5 24t125.5 60l-91 -235h-165v-84q0 -63 17 -107.5t58 -91.5h-354zM717 434v817l-461 -800q102 -9 181.5 -13t142.5 -4h137z" />
    <glyph glyph-name="five" unicode="5" horiz-adv-x="1214" 
d="M201 0l-88 215q93 -44 178 -66t164 -22q178 0 289.5 89t111.5 230q0 124 -97 199.5t-257 75.5q-70 0 -151 -16.5t-179 -51.5l43 727h743v-243q-53 41 -135.5 61.5t-199.5 20.5q-57 0 -112.5 -6.5t-107.5 -18.5l-18 -332q67 12 119 18.5t88 6.5q213 0 352 -124t139 -312
q0 -130 -74 -239.5t-206 -174.5q-65 -33 -144.5 -49.5t-177.5 -16.5q-60 0 -130 7.5t-150 21.5z" />
    <glyph glyph-name="six" unicode="6" horiz-adv-x="1214" 
d="M397 719l113 149q58 20 112 29.5t103 9.5q184 0 299 -119.5t115 -312.5q0 -216 -144.5 -357t-365.5 -141q-121 0 -225.5 46t-180.5 133q-72 83 -109.5 185.5t-37.5 217.5q0 153 71.5 304.5t198.5 264.5q112 100 272 167.5t379 107.5l-82 -115q-307 -98 -464.5 -282
t-157.5 -445q0 -198 97.5 -319t256.5 -121q131 0 214 88t83 227q0 148 -87 245t-220 97q-45 0 -104.5 -14.5t-135.5 -44.5z" />
    <glyph glyph-name="seven" unicode="7" horiz-adv-x="1214" 
d="M330 0l518 1194q-74 18 -142 26.5t-135 8.5q-116 0 -217 -25t-190 -76l88 252h881l-488 -1177q-14 -35 -21.5 -60.5t-7.5 -42.5q0 -21 10 -43t36 -57h-332z" />
    <glyph glyph-name="eight" unicode="8" horiz-adv-x="1214" 
d="M711 809q88 52 132 112t44 130q0 96 -87 161.5t-218 65.5q-115 0 -189 -53t-74 -133q0 -87 91 -153t301 -130zM362 735q-123 50 -186 128.5t-63 180.5q0 155 139 256t358 101q204 0 340.5 -97.5t136.5 -238.5q0 -84 -66 -161.5t-196 -145.5q176 -77 254 -166t78 -211
q0 -179 -151 -290t-398 -111q-241 0 -398 112.5t-157 278.5q0 104 78 195.5t231 168.5zM483 664q-107 -59 -162 -129t-55 -148q0 -112 101.5 -196.5t240.5 -84.5q145 0 241.5 71.5t96.5 174.5q0 113 -110.5 187.5t-352.5 124.5z" />
    <glyph glyph-name="nine" unicode="9" horiz-adv-x="1214" 
d="M807 662l-111 -150q-57 -19 -112 -29t-105 -10q-184 0 -298.5 120t-114.5 312q0 216 145 357t367 141q120 0 223.5 -46t179.5 -132q73 -84 111 -187.5t38 -216.5q0 -153 -71.5 -304.5t-198.5 -264.5q-111 -100 -271.5 -167.5t-379.5 -107.5l80 115q307 98 464.5 282
t157.5 445q0 199 -97.5 320t-256.5 121q-131 0 -213 -88t-82 -228q0 -148 87 -245t220 -97q45 0 101.5 14t136.5 46z" />
    <glyph glyph-name="colon" unicode=":" horiz-adv-x="635" 
d="M188 846q0 53 37 90t90 37t90 -37.5t37 -89.5t-37 -89.5t-90 -37.5t-90 37t-37 90zM193 98q0 53 36.5 90t89.5 37t90 -37t37 -90q0 -52 -37 -89.5t-90 -37.5t-89.5 37.5t-36.5 89.5z" />
    <glyph glyph-name="semicolon" unicode=";" horiz-adv-x="635" 
d="M190 846q0 53 37 90t90 37t90 -37.5t37 -89.5t-37 -89.5t-90 -37.5t-90 37t-37 90zM307 -45q-57 7 -89 41t-32 86q0 59 38.5 100t92.5 41q58 0 95 -44t37 -116q0 -71 -41.5 -147.5t-120.5 -151.5l-101 11q51 59 81 103t40 77z" />
    <glyph glyph-name="less" unicode="&#x3c;" horiz-adv-x="1706" 
d="M1442 1006l-969 -396l969 -393v-154l-1178 484v129l1178 483v-153z" />
    <glyph glyph-name="equal" unicode="=" horiz-adv-x="1706" 
d="M1452 481v-139h-1198v139h1198zM1452 879v-140h-1198v140h1198z" />
    <glyph glyph-name="greater" unicode="&#x3e;" horiz-adv-x="1706" 
d="M1442 676v-129l-1178 -484v154l971 393l-971 396v153z" />
    <glyph glyph-name="question" unicode="?" horiz-adv-x="971" 
d="M266 98q0 53 37 90t90 37q52 0 89.5 -37t37.5 -90q0 -52 -37.5 -89.5t-89.5 -37.5q-53 0 -90 37.5t-37 89.5zM297 340q-3 17 -4.5 33t-1.5 33q0 63 25 121t75 110q29 30 91.5 85t90.5 85q40 41 61 93t21 108q0 113 -82.5 188.5t-207.5 75.5q-56 0 -124.5 -19t-150.5 -57
l125 193q67 17 120 25.5t93 8.5q188 0 314 -109t126 -270q0 -49 -17 -101.5t-52 -108.5q-44 -71 -154.5 -166t-138.5 -123q-25 -25 -37 -57t-12 -72q0 -18 2 -34.5t6 -31.5z" />
    <glyph glyph-name="at" unicode="@" horiz-adv-x="2048" 
d="M1284 854l57 115h132l-146 -576q-4 -16 -6 -31t-2 -28q0 -46 25.5 -70t74.5 -24q48 0 102.5 26.5t106.5 75.5q80 76 125 186.5t45 233.5q0 259 -190.5 420t-499.5 161q-133 0 -246 -28t-211 -86q-191 -114 -296 -299.5t-105 -409.5q0 -177 61.5 -308t192.5 -230
q100 -77 236.5 -118.5t287.5 -41.5q169 0 328.5 49t292.5 141l55 -82q-148 -111 -314.5 -167t-349.5 -56q-190 0 -348 47t-280 140q-154 118 -230 274t-76 354q0 165 52 313t151 269q146 178 351.5 270t455.5 92q163 0 310 -45t253 -127q130 -100 197.5 -231t67.5 -283
q0 -175 -63.5 -315t-184.5 -236q-68 -54 -149.5 -83t-166.5 -29q-99 0 -149.5 39.5t-50.5 117.5v19q-55 -89 -129 -131.5t-172 -42.5q-153 0 -233.5 85t-80.5 247q0 235 138 394t339 159q85 0 145.5 -37.5t96.5 -112.5zM1190 475l59 236q-17 88 -68.5 136t-129.5 48
q-138 0 -232 -130t-94 -319q0 -105 48.5 -162t137.5 -57q97 0 174.5 69t104.5 179z" />
    <glyph glyph-name="A" unicode="A" horiz-adv-x="1268" 
d="M401 659h410l-197 537zM213 188q-9 -21 -13.5 -43.5t-4.5 -46.5q0 -20 14.5 -44t46.5 -54h-328q41 28 73.5 77t66.5 134l391 991q12 28 18 55t6 48q0 24 -11.5 44t-37.5 40h316l442 -1164q31 -79 66.5 -128.5t91.5 -96.5h-398l5 5q55 58 55 85q0 32 -24 94q-3 10 -5 15
l-119 321h-518z" />
    <glyph glyph-name="B" unicode="B" horiz-adv-x="1274" 
d="M416 164q86 -9 122.5 -11.5t59.5 -2.5q159 0 249.5 71t90.5 195q0 126 -96 207.5t-250 81.5q-33 -1 -77.5 -5.5t-98.5 -13.5v-522zM113 0q44 40 63 90.5t19 155.5v899q0 105 -19 155t-63 89h473q212 0 333 -82.5t121 -225.5q0 -84 -51.5 -151.5t-154.5 -118.5
q162 -46 245.5 -140.5t83.5 -232.5q0 -204 -160 -321t-444 -117h-446zM416 838q27 -5 55 -7t57 -2q135 0 209 58.5t74 163.5q0 98 -66 153.5t-184 55.5q-31 -1 -66.5 -5.5t-78.5 -13.5v-403z" />
    <glyph glyph-name="C" unicode="C" horiz-adv-x="1341" 
d="M1296 279l-104 -250q-98 -32 -184 -48t-164 -16q-116 0 -226 30t-208 89q-156 93 -243 255t-87 357q0 146 63 284t179 245q106 97 242 147.5t290 50.5q73 0 153.5 -13.5t172.5 -41.5v-223q-94 50 -178 74t-164 24q-233 0 -373.5 -144t-140.5 -382q0 -261 145.5 -421.5
t382.5 -160.5q97 0 206.5 35.5t237.5 108.5z" />
    <glyph glyph-name="D" unicode="D" horiz-adv-x="1473" 
d="M397 168q76 -12 131 -17.5t95 -5.5q232 0 383 156.5t151 396.5q0 246 -150 395.5t-399 149.5q-51 0 -104 -7t-107 -22v-1046zM98 0q44 39 62 88t18 158v899q0 109 -18 157.5t-62 86.5h484q195 0 322 -38t235 -124q121 -96 182 -225t61 -287q0 -143 -45.5 -265
t-136.5 -221q-111 -121 -270.5 -175t-413.5 -54h-418z" />
    <glyph glyph-name="E" unicode="E" horiz-adv-x="1077" 
d="M113 0q44 40 63 90.5t19 155.5v899q0 105 -19 155t-63 89h761v-218q-51 40 -112 58t-141 18q-41 0 -92 -6.5t-115 -19.5v-392h340v-202q-24 28 -65 39.5t-150 11.5h-125v-498q79 -12 143 -18t111 -6q106 0 200 28.5t185 87.5l-97 -272h-843z" />
    <glyph glyph-name="F" unicode="F" horiz-adv-x="971" 
d="M412 246q0 -105 18.5 -155.5t63.5 -90.5h-381q44 40 63 90.5t19 155.5v899q0 105 -19 155t-63 89h761v-218q-51 40 -112 58t-141 18q-41 0 -92 -6.5t-115 -19.5v-392h340v-202q-24 28 -65 39.5t-150 11.5h-127v-432z" />
    <glyph glyph-name="G" unicode="G" horiz-adv-x="1454" 
d="M1212 1159q-90 58 -177 85.5t-179 27.5q-241 0 -389 -156.5t-148 -413.5q0 -268 154.5 -424.5t417.5 -156.5q61 0 128.5 11.5t141.5 35.5v293q0 105 -18.5 155t-63.5 89h271v-676q-135 -31 -250.5 -46.5t-214.5 -15.5q-145 0 -261.5 28.5t-211.5 86.5
q-155 93 -243.5 253.5t-88.5 348.5q0 155 62 293.5t180 247.5q107 98 244.5 148t299.5 50q72 0 158.5 -10.5t187.5 -32.5v-221z" />
    <glyph glyph-name="H" unicode="H" horiz-adv-x="1575" 
d="M412 246q0 -105 18.5 -155.5t63.5 -90.5h-381q44 40 63 90.5t19 155.5v899q0 105 -19 155t-63 89h381q-45 -39 -63.5 -89t-18.5 -155v-311h749v311q0 105 -18.5 155t-63.5 89h381q-44 -39 -63 -89t-19 -155v-899q0 -105 18.5 -155.5t63.5 -90.5h-381q45 40 63.5 90.5
t18.5 155.5v428h-749v-428z" />
    <glyph glyph-name="I" unicode="I" horiz-adv-x="618" 
d="M418 246q0 -105 18.5 -155.5t63.5 -90.5h-381q45 40 63.5 90.5t18.5 155.5v899q0 105 -18.5 155t-63.5 89h381q-45 -39 -63.5 -89t-18.5 -155v-899z" />
    <glyph glyph-name="J" unicode="J" horiz-adv-x="608" 
d="M412 25q0 -165 -22 -231t-77 -118q-56 -53 -148.5 -88.5t-211.5 -50.5q136 96 189 194.5t53 293.5v1120q0 105 -19 155t-63 89h381q-45 -39 -63.5 -89t-18.5 -155v-1120z" />
    <glyph glyph-name="K" unicode="K" horiz-adv-x="1190" 
d="M446 729l322 434q34 46 50 77t16 52q0 23 -13 47t-39 50h348l-448 -621l408 -575q24 -35 68.5 -82t113.5 -111h-117q-112 0 -184 42.5t-168 180.5zM412 246q0 -105 18.5 -155.5t63.5 -90.5h-381q44 40 63 90.5t19 155.5v899q0 105 -19 155t-63 89h381q-45 -39 -63.5 -89
t-18.5 -155v-899z" />
    <glyph glyph-name="L" unicode="L" horiz-adv-x="1059" 
d="M113 0q44 40 63 90.5t19 155.5v899q0 105 -19 155t-63 89h381q-45 -39 -63.5 -89t-18.5 -155v-965q81 -12 145 -18t111 -6q105 0 200 28.5t185 87.5l-97 -272h-843z" />
    <glyph glyph-name="M" unicode="M" horiz-adv-x="1915" 
d="M0 0q52 53 79.5 108t39.5 128l139 933q5 34 7.5 57.5t2.5 41.5q0 31 -12 54t-57 67h354l416 -1031l407 1031h338q-31 -29 -45 -62.5t-14 -81.5q0 -23 1 -39t3 -32l121 -953q8 -70 31.5 -122.5t66.5 -98.5h-377q39 29 57.5 68t18.5 90q0 13 -0.5 20.5t-1.5 13.5l-113 977
l-481 -1185q-54 33 -95.5 90t-82.5 155l-387 936l-137 -915q-7 -43 -9 -62t-2 -30q0 -50 19 -85.5t65 -72.5h-352z" />
    <glyph glyph-name="N" unicode="N" horiz-adv-x="1563" 
d="M1450 1389q-45 -39 -63.5 -89t-18.5 -155v-1177q-73 2 -138.5 47t-164.5 171l-717 904v-844q0 -109 18 -158t62 -88h-315q44 40 63 90.5t19 155.5v899q0 105 -19 155t-63 89h282l822 -1043v799q0 105 -19 155t-63 89h315z" />
    <glyph glyph-name="O" unicode="O" horiz-adv-x="1688" 
d="M850 1274q-232 0 -382.5 -159t-150.5 -406q0 -255 149 -423.5t372 -168.5q231 0 381.5 159.5t150.5 407.5q0 255 -149 422.5t-371 167.5zM842 -33q-159 0 -299.5 51t-241.5 146q-106 100 -163.5 235.5t-57.5 284.5q0 117 36.5 227t106.5 205q109 147 269.5 226t349.5 79
q162 0 302.5 -50.5t241.5 -145.5q108 -100 165 -236.5t57 -294.5q0 -145 -64 -284t-180 -246q-104 -97 -237 -147t-285 -50z" />
    <glyph glyph-name="P" unicode="P" horiz-adv-x="1184" 
d="M412 246q0 -105 18.5 -155.5t63.5 -90.5h-381q44 40 63 90.5t19 155.5v899q0 105 -19 155t-63 89h497q227 0 361.5 -103.5t134.5 -275.5q0 -169 -123 -273t-326 -104q-34 0 -73.5 4t-83.5 12q187 35 283 119.5t96 214.5q0 120 -83.5 190t-226.5 70q-31 0 -70.5 -4.5
t-86.5 -13.5v-979z" />
    <glyph glyph-name="Q" unicode="Q" horiz-adv-x="1688" 
d="M850 1274q-231 0 -381 -159t-150 -406q0 -255 148.5 -423.5t370.5 -168.5q231 0 381.5 159.5t150.5 407.5q0 255 -149 422.5t-371 167.5zM978 -23q-41 -5 -78.5 -7.5t-72.5 -2.5q-149 0 -287 52t-237 145q-105 97 -163 233.5t-58 286.5q0 117 36.5 227t106.5 205
q109 147 269.5 226t349.5 79q161 0 302.5 -51t242.5 -145q106 -101 162.5 -237t56.5 -294q0 -197 -97.5 -357.5t-285.5 -273.5q200 -175 333 -252.5t231 -78.5q-39 -48 -92 -71t-122 -23q-98 0 -218 65t-379 274z" />
    <glyph glyph-name="R" unicode="R" horiz-adv-x="1239" 
d="M412 246q0 -105 18.5 -155.5t63.5 -90.5h-381q44 40 63 90.5t19 155.5v899q0 105 -19 155t-63 89h481q206 0 332.5 -98t126.5 -255q0 -114 -76 -201t-236 -153l361 -481q32 -43 77 -91t103 -100l-108 -10h-17q-76 0 -148 40t-122 110l-414 571q185 41 270.5 112.5
t85.5 184.5q0 105 -73.5 171t-192.5 66q-27 0 -65 -4.5t-86 -13.5v-991z" />
    <glyph glyph-name="S" unicode="S" horiz-adv-x="1120" 
d="M109 31l-66 252q121 -81 235 -120.5t226 -39.5q143 0 230 61.5t87 159.5q0 28 -9 56t-26 53q-38 57 -255 163q-55 26 -85 41q-203 102 -278.5 188t-75.5 204q0 169 138 268.5t378 99.5q69 0 152 -9t180 -28v-233q-86 65 -173 97t-181 32q-119 0 -191.5 -51t-72.5 -133
q0 -73 57 -129t256 -150q11 -5 34 -16q168 -77 251 -142q62 -48 96.5 -117t34.5 -147q0 -179 -164 -303.5t-410 -124.5q-79 0 -170 17t-198 51z" />
    <glyph glyph-name="T" unicode="T" horiz-adv-x="1116" 
d="M657 246q0 -105 19 -155.5t63 -90.5h-381q45 40 63.5 90.5t18.5 155.5v991h-112q-116 0 -188 -18t-115 -58l69 228h993l-65 -224q-31 37 -81.5 54.5t-127.5 17.5h-156v-991z" />
    <glyph glyph-name="U" unicode="U" horiz-adv-x="1489" 
d="M1087 0v106q-102 -73 -205 -109t-210 -36q-122 0 -217 40t-164 120q-54 63 -77.5 146.5t-23.5 224.5v653q0 105 -18.5 155t-62.5 89h380q-44 -39 -62.5 -89t-18.5 -155v-610q0 -143 14 -212t47 -110q40 -49 106.5 -73.5t159.5 -24.5q76 0 142 22.5t116 65.5
q44 36 63 93.5t19 156.5v692q0 109 -18 157.5t-62 86.5h381q-44 -38 -63 -91t-19 -153v-899q0 -105 19 -155.5t63 -90.5h-289z" />
    <glyph glyph-name="V" unicode="V" horiz-adv-x="1188" 
d="M647 -35q-89 23 -152 100.5t-116 231.5l-281 809q-34 100 -64.5 163t-68.5 120l287 -1q2 -34 7 -63t13 -55l338 -994l320 828q14 38 22.5 76.5t8.5 70.5q0 28 -16 59.5t-54 78.5h319z" />
    <glyph glyph-name="W" unicode="W" horiz-adv-x="1950" 
d="M641 -33q-106 22 -167.5 91t-115.5 241l-256 807q-30 97 -65.5 165.5t-79.5 117.5h291q0 -26 5 -55t15 -64l320 -1037l274 871q17 55 24 88.5t7 58.5q0 28 -16 59.5t-54 78.5h281v-29q0 -88 37 -205q6 -19 8 -27l272 -892l267 833q15 49 23.5 91.5t8.5 72.5q0 37 -19 75
t-61 81h308l-471 -1422q-98 20 -163 88.5t-104 192.5l-237 749z" />
    <glyph glyph-name="X" unicode="X" horiz-adv-x="1169" 
d="M-86 0l561 739l-311 492q-28 43 -66 82.5t-86 75.5h297q17 -23 42.5 -58.5t29.5 -42.5l244 -383l221 289q22 29 32.5 52.5t10.5 45.5q0 21 -14 43.5t-46 53.5h377l-485 -639l379 -574q30 -45 68 -86.5t94 -89.5h-299l-390 596l-272 -365q-5 -6 -12 -15q-60 -77 -60 -114
q0 -33 63 -95l7 -7h-385z" />
    <glyph glyph-name="Y" unicode="Y" horiz-adv-x="1016" 
d="M616 246q0 -105 19 -155.5t63 -90.5h-383q45 40 63.5 90.5t18.5 155.5v383l-340 551q-39 62 -84.5 113.5t-101.5 95.5h307l361 -605l243 394q22 36 33.5 65.5t11.5 50.5q0 24 -14.5 47.5t-44.5 47.5h324l-476 -764v-379z" />
    <glyph glyph-name="Z" unicode="Z" horiz-adv-x="1194" 
d="M1180 260l-101 -260h-1083l739 1210q-83 21 -156.5 31t-136.5 10q-92 0 -177.5 -22.5t-174.5 -71.5l96 232h901l-739 -1209q123 -14 207 -20t145 -6q144 0 263 26.5t217 79.5z" />
    <glyph glyph-name="bracketleft" unicode="[" horiz-adv-x="729" 
d="M645 -399h-434v1788h414v-95h-254v-1599h274v-94z" />
    <glyph glyph-name="backslash" unicode="\" horiz-adv-x="569" 
d="M592 -190h-115l-555 1611h115z" />
    <glyph glyph-name="bracketright" unicode="]" horiz-adv-x="729" 
d="M84 -399v94h274v1599h-254v95h414v-1788h-434z" />
    <glyph glyph-name="asciicircum" unicode="^" horiz-adv-x="2048" 
d="M1116 1458l510 -557h-180l-422 420l-424 -420h-180l510 557h186z" />
    <glyph glyph-name="underscore" unicode="_" 
d="M1024 -340v-143h-1024v143h1024z" />
    <glyph glyph-name="grave" unicode="`" 
d="M688 1118h-74l-301 185q-51 32 -67.5 52t-16.5 46q0 32 22.5 56t53.5 24q24 0 52 -16t55 -46z" />
    <glyph glyph-name="a" unicode="a" horiz-adv-x="1071" 
d="M1049 135l-84 -131q-148 0 -211.5 53.5t-63.5 178.5v288q-16 -4 -49 -13q-371 -101 -371 -220q0 -76 62 -123t164 -47q28 0 64 5.5t81 16.5l-111 -149q-37 -9 -67.5 -13t-59.5 -4q-149 0 -245.5 87t-96.5 219q0 50 18 95t52 81q62 62 267 108q42 9 65 15q137 31 181 59.5
t44 77.5q0 63 -60 101t-161 38q-53 0 -118 -19t-142 -57l131 209q51 7 96.5 11t83.5 4q75 0 136 -17.5t108 -52.5q61 -45 86.5 -112t25.5 -208v-235q0 -162 35 -200t140 -46z" />
    <glyph glyph-name="b" unicode="b" horiz-adv-x="1137" 
d="M334 154q39 -22 80 -32.5t88 -10.5q169 0 267.5 101t98.5 273q0 156 -81 252.5t-212 96.5q-37 0 -81 -10.5t-99 -30.5l105 186q33 5 59.5 7.5t50.5 2.5q209 0 335 -132.5t126 -352.5q0 -249 -163 -396t-441 -147q-74 0 -172 12.5t-221 36.5q36 32 52.5 76t16.5 109v1048
q0 65 -16.5 108.5t-52.5 75.5h260v-1273z" />
    <glyph glyph-name="c" unicode="c" horiz-adv-x="1032" 
d="M879 768q-74 46 -139.5 69t-123.5 23q-146 0 -234.5 -94.5t-88.5 -249.5q0 -168 111.5 -278.5t279.5 -110.5q71 0 148 22t174 70l-107 -184q-57 -36 -118.5 -53t-131.5 -17q-253 0 -417 144.5t-164 365.5q0 225 161 379t398 154q37 0 100 -6.5t152 -18.5v-215z" />
    <glyph glyph-name="d" unicode="d" horiz-adv-x="1225" 
d="M1075 188q0 -60 18.5 -105t57.5 -79h-262v492q0 94 -12.5 147.5t-40.5 93.5q-39 56 -105.5 88.5t-142.5 32.5q-133 0 -222.5 -100t-89.5 -250q0 -168 102 -279.5t255 -111.5q44 0 96.5 11t110.5 34l-121 -176q-40 -6 -70.5 -8.5t-56.5 -2.5q-240 0 -382 139.5t-142 374.5
q0 212 143.5 360t347.5 148q88 0 169.5 -29t160.5 -87v311q0 89 -16 133.5t-54 77.5h25q35 0 86.5 5.5t144.5 18.5v-1239z" />
    <glyph glyph-name="e" unicode="e" horiz-adv-x="1114" 
d="M299 647h520q-6 103 -76 168.5t-174 65.5q-112 0 -184 -62.5t-86 -171.5zM285 510q7 -182 115.5 -289.5t283.5 -107.5q78 0 164.5 25.5t187.5 78.5l-108 -188q-87 -32 -162 -48t-141 -16q-243 0 -400 147t-157 373q0 232 144.5 380.5t369.5 148.5q207 0 329 -135.5
t125 -368.5h-751z" />
    <glyph glyph-name="f" unicode="f" horiz-adv-x="647" 
d="M365 182q0 -64 16 -107t53 -75h-328q37 32 53.5 75t16.5 107v649h-110l110 142q0 8 -1 24t-1 23q0 207 107.5 308.5t326.5 101.5q26 0 55.5 -2t57.5 -5l-112 -142q-32 6 -58 9.5t-47 3.5q-76 0 -107.5 -44t-31.5 -152v-125h245v-142h-245v-649z" />
    <glyph glyph-name="g" unicode="g" horiz-adv-x="1094" 
d="M756 633q0 104 -74.5 174t-185.5 70q-104 0 -166 -57.5t-62 -151.5q0 -106 76 -178t186 -72q98 0 162 61t64 154zM1124 1018l-62 -156q-8 -1 -19 -1.5t-35 -0.5q-43 0 -100 4.5t-129 13.5q94 -51 139 -113.5t45 -143.5q0 -94 -57.5 -167.5t-164.5 -115.5
q-87 -35 -187 -46q-8 -1 -11 -1l-6 -1q-109 -15 -109 -59q0 -22 16.5 -31.5t55.5 -9.5q32 0 82.5 2.5t68.5 2.5q210 0 339.5 -84t129.5 -215q0 -167 -167.5 -274t-434.5 -107q-242 0 -399.5 85.5t-157.5 211.5q0 72 56 120t141 48q20 0 45.5 -5.5t60.5 -17.5
q-43 -6 -65.5 -33t-22.5 -74q0 -89 108.5 -154t266.5 -65q157 0 263 71.5t106 172.5q0 97 -91 148t-264 51q-14 0 -80 -2t-118 -2q-80 0 -123 28.5t-43 81.5q0 50 41.5 85.5t122.5 53.5q-137 29 -217 119t-80 211q0 164 130 260.5t357 96.5q57 0 165.5 -5.5t160.5 -5.5
q44 0 103 5.5t140 17.5z" />
    <glyph glyph-name="h" unicode="h" horiz-adv-x="1145" 
d="M332 182q0 -64 16.5 -107t52.5 -75h-327q37 32 53 75t16 107v1039q0 64 -16 107t-53 75h18q43 0 101.5 6t134.5 18v-587q75 80 151 117.5t162 37.5q162 0 263.5 -98.5t101.5 -257.5v-457q0 -64 16 -107t53 -75h-330q37 32 53.5 75t16.5 107v348q0 160 -57.5 233
t-182.5 73q-130 0 -186.5 -67t-56.5 -224v-363z" />
    <glyph glyph-name="i" unicode="i" horiz-adv-x="492" 
d="M115 1233q0 51 36 87t87 36q50 0 85 -36t35 -87q0 -52 -34.5 -87.5t-85.5 -35.5q-52 0 -87.5 36t-35.5 87zM340 182q0 -64 16.5 -107t53.5 -75h-326q37 32 53.5 75t16.5 107v606q0 65 -17 109t-53 76q86 2 148 7.5t108 14.5v-813z" />
    <glyph glyph-name="j" unicode="j" horiz-adv-x="471" 
d="M332 -53q0 -204 -85.5 -293t-299.5 -115q105 61 150.5 164.5t45.5 292.5v792q0 65 -16.5 109t-52.5 76h26q40 0 97 5.5t135 16.5v-1048zM96 1233q0 51 36 87t87 36q50 0 86.5 -36t36.5 -87q0 -52 -36 -87.5t-87 -35.5q-52 0 -87.5 36t-35.5 87z" />
    <glyph glyph-name="k" unicode="k" horiz-adv-x="999" 
d="M74 0q37 32 53 75t16 107v1039q0 64 -16 107t-53 75h18q42 0 96.5 5.5t143.5 18.5v-1245q0 -64 16.5 -107t52.5 -75h-327zM618 973h300l-336 -412l319 -411q13 -18 99 -103l47 -47h-197q-47 0 -84 24.5t-88 94.5l-303 424l207 235q30 36 47.5 69t17.5 54q0 15 -7 33
t-22 39z" />
    <glyph glyph-name="l" unicode="l" horiz-adv-x="471" 
d="M332 182q0 -64 16.5 -107t52.5 -75h-325q37 32 53 75t16 107v1039q0 64 -16 107t-53 75h22q32 0 78.5 4.5t155.5 19.5v-1245z" />
    <glyph glyph-name="m" unicode="m" horiz-adv-x="1819" 
d="M332 182q0 -64 16.5 -107t52.5 -75h-327q37 32 53 75t16 107v606q0 65 -16.5 109t-52.5 76h22q49 0 103.5 5.5t119.5 16.5l9 -155q74 79 151 117t162 38q102 0 184 -42t148 -128q91 88 173.5 129t168.5 41q161 0 261.5 -98t100.5 -258v-457q0 -64 16.5 -107t53.5 -75
h-328q37 32 53.5 75t16.5 107v348q0 159 -57.5 231.5t-182.5 72.5q-130 0 -186.5 -66.5t-56.5 -222.5v-363q0 -64 16 -107t53 -75h-330q37 32 53.5 75t16.5 107v348q0 159 -57.5 231.5t-182.5 72.5q-130 0 -186.5 -66.5t-56.5 -222.5v-363z" />
    <glyph glyph-name="n" unicode="n" horiz-adv-x="1145" 
d="M332 182q0 -64 16.5 -107t52.5 -75h-327q37 32 53 75t16 107v606q0 65 -16.5 109t-52.5 76h22q49 0 103.5 5.5t119.5 16.5l9 -155q75 80 151 117.5t162 37.5q162 0 263.5 -98.5t101.5 -257.5v-457q0 -64 16 -107t53 -75h-330q37 32 53.5 75t16.5 107v348
q0 159 -57.5 231.5t-182.5 72.5q-130 0 -186.5 -66.5t-56.5 -222.5v-363z" />
    <glyph glyph-name="o" unicode="o" horiz-adv-x="1219" 
d="M281 516q0 -182 93.5 -294.5t243.5 -112.5q141 0 230.5 100.5t89.5 259.5q0 171 -95.5 282t-242.5 111q-138 0 -228.5 -98.5t-90.5 -247.5zM66 475q0 110 41.5 206.5t121.5 172.5q77 72 180 112t214 40q115 0 208 -37t168 -113q74 -74 113 -166.5t39 -193.5
q0 -111 -41 -207.5t-121 -171.5q-76 -71 -179 -110.5t-214 -39.5q-117 0 -209 36t-168 112q-74 74 -113.5 167.5t-39.5 192.5z" />
    <glyph glyph-name="p" unicode="p" horiz-adv-x="1231" 
d="M74 -426q37 32 53 75t16 107v1032q0 65 -16.5 109t-52.5 76h26q54 0 109 5.5t112 16.5l9 -155q75 82 164.5 123t191.5 41q202 0 340.5 -142.5t138.5 -351.5q0 -137 -53.5 -250.5t-153.5 -187.5q-66 -50 -140 -74.5t-159 -24.5q-36 0 -75 5t-78 14l-121 176
q62 -28 115 -41.5t100 -13.5q165 0 257.5 96t92.5 268q0 165 -92 271t-233 106q-60 0 -114 -21t-97 -61q-44 -40 -62 -100.5t-18 -204.5v-61v-650q0 -64 16.5 -107t52.5 -75h-329z" />
    <glyph glyph-name="q" unicode="q" horiz-adv-x="1223" 
d="M1151 973q-37 -37 -53.5 -81t-16.5 -108v-1028q0 -64 16.5 -107t53.5 -75h-330q37 32 53.5 75t16.5 107v1035q-66 20 -124.5 30t-113.5 10q-156 0 -259 -101.5t-103 -256.5q0 -161 99 -261.5t257 -100.5q40 0 84.5 8.5t95.5 25.5l-108 -159q-29 -5 -63.5 -8t-73.5 -3
q-235 0 -373.5 131.5t-138.5 354.5q0 128 61 236.5t174 181.5q77 49 181 71.5t264 22.5h401z" />
    <glyph glyph-name="r" unicode="r" horiz-adv-x="700" 
d="M649 791q-23 17 -47 24.5t-53 7.5q-106 0 -161.5 -71.5t-55.5 -206.5v-363q0 -64 16.5 -107t52.5 -75h-327q37 32 53 75t16 107v606q0 65 -16.5 109t-52.5 76h22q49 0 103.5 5.5t119.5 16.5l15 -155q44 78 101 115.5t130 37.5q18 0 37 -2t47 -8v-192z" />
    <glyph glyph-name="s" unicode="s" horiz-adv-x="948" 
d="M123 20l-80 222q113 -76 209 -113t182 -37q107 0 171.5 41.5t64.5 110.5q0 86 -219 173q-53 21 -82 34q-129 54 -187.5 120t-58.5 156q0 129 102 205t279 76q57 0 125 -8.5t143 -24.5v-174q-76 38 -148 58t-139 20q-76 0 -121 -32.5t-45 -86.5q0 -77 182 -143
q78 -28 124 -48q130 -55 191 -121t61 -153q0 -150 -129 -241t-347 -91q-79 0 -147 14t-131 43z" />
    <glyph glyph-name="t" unicode="t" horiz-adv-x="705" 
d="M164 831h-133v72q120 11 188.5 110.5t73.5 270.5h59v-311h289v-182q-24 21 -58.5 30.5t-90.5 9.5h-140v-473q0 -130 43.5 -191t134.5 -61q21 1 44 4.5t46 9.5l-98 -143h-5q-40 -4 -58 -4q-147 0 -221 74t-74 219v565z" />
    <glyph glyph-name="u" unicode="u" horiz-adv-x="1145" 
d="M819 131q-75 -80 -151 -118t-162 -38q-161 0 -263 99.5t-102 259.5v454q0 65 -16.5 109t-52.5 76h28q58 0 116 5.5t115 16.5l1 -555q0 -158 57 -230.5t182 -72.5q131 0 187.5 67t56.5 224v360q0 65 -16.5 109t-53.5 76h25q53 0 110.5 5.5t123.5 16.5v-788q0 -64 16 -107
t53 -75h-18q-44 0 -97 -6t-129 -19z" />
    <glyph glyph-name="v" unicode="v" horiz-adv-x="995" 
d="M999 973l-448 -1006q-77 24 -128.5 79t-109.5 190l-221 526q-36 84 -69 129t-80 82h30q87 0 142.5 8.5t83.5 26.5l305 -775l237 529q18 38 24.5 61.5t6.5 42.5q0 25 -14 49.5t-49 57.5h290z" />
    <glyph glyph-name="w" unicode="w" horiz-adv-x="1571" 
d="M897 972q1 -25 6 -51t12 -46l220 -629l196 505q2 5 5 14q32 86 32 116q0 20 -14.5 42.5t-46.5 49.5h264l-408 -1006q-66 23 -111.5 71.5t-74.5 127.5l-195 532l-274 -731q-75 18 -120.5 62.5t-80.5 136.5l-252 682q-12 33 -63 96q-15 19 -23 29h45q67 0 106.5 5t78.5 15
l270 -755l197 528q15 41 23.5 72.5t8.5 44.5q0 15 -10 36t-35 54z" />
    <glyph glyph-name="x" unicode="x" horiz-adv-x="977" 
d="M-49 0l440 506l-219 301q-31 42 -70.5 82.5t-91.5 83.5h256q22 -17 42.5 -39.5t43.5 -54.5l166 -230l113 129q36 42 56 73t20 46q0 17 -11 35.5t-34 40.5h323l-379 -443l291 -401q24 -32 59 -65t78 -64h-254q-37 15 -92 92q-13 19 -20 28l-191 265l-192 -225
q-28 -32 -40 -54t-12 -43q0 -12 10 -28.5t27 -34.5h-319z" />
    <glyph glyph-name="y" unicode="y" horiz-adv-x="1004" 
d="M-106 -393l184 139q32 -19 61 -28t60 -9q80 0 144 75.5t112 225.5q-33 28 -63 76.5t-64 126.5l-250 569q-1 2 -2 5q-61 138 -142 186h269q25 -29 52 -92q2 -4 3 -7l277 -657l214 546q12 32 17.5 59.5t5.5 51.5q0 22 -13.5 46.5t-41.5 52.5h282l-428 -1090
q-63 -162 -174 -244.5t-266 -82.5q-54 0 -112.5 12.5t-124.5 38.5z" />
    <glyph glyph-name="z" unicode="z" horiz-adv-x="1020" 
d="M18 0l566 823q-43 6 -84 9.5t-80 3.5q-100 0 -187.5 -20t-160.5 -60l102 217h729l-538 -809q68 -7 131.5 -10.5t117.5 -3.5q123 0 221.5 20.5t172.5 62.5l-119 -233h-871z" />
    <glyph glyph-name="braceleft" unicode="{" 
d="M866 1327h-41q-120 0 -161 -44.5t-41 -184.5v-242q0 -160 -44.5 -228t-156.5 -98q113 -28 157 -96t44 -229v-242q0 -141 41.5 -185t162.5 -44h39v-148h-43q-108 0 -169 11.5t-103 37.5q-55 34 -77.5 97t-22.5 211v245q0 149 -54.5 210t-185.5 61q-7 0 -21.5 -1t-21.5 -1
v149q8 0 23 -1t22 -1q130 0 184 60.5t54 207.5v246q0 148 22.5 210.5t77.5 96.5q45 28 108.5 40t169.5 12h37v-150z" />
    <glyph glyph-name="bar" unicode="|" 
d="M588 1565v-2048h-150v2048h150z" />
    <glyph glyph-name="braceright" unicode="}" 
d="M575 1118v-246q0 -147 54 -207.5t184 -60.5q7 0 22 1t23 1v-149q-7 0 -22 1t-21 1q-132 0 -186 -60.5t-54 -210.5v-245q0 -148 -22.5 -211t-77.5 -97q-42 -26 -103 -37.5t-169 -11.5h-43v148h39q120 0 162 45t42 186v240q0 160 44.5 228t156.5 97q-112 30 -156.5 98
t-44.5 228v242q0 140 -42 184.5t-162 44.5h-39v150h37q107 0 171 -12.5t107 -39.5q55 -34 77.5 -96.5t22.5 -210.5z" />
    <glyph glyph-name="asciitilde" unicode="~" horiz-adv-x="1706" 
d="M1530 614q-104 -72 -199 -106.5t-190 -34.5q-93 0 -256 58q-22 8 -34 12q-5 2 -15 5q-176 60 -273 60q-84 0 -175 -37t-210 -120v155q106 72 202 108t185 36q62 0 127.5 -13.5t163.5 -48.5q16 -5 47 -17q159 -57 240 -57q88 0 179.5 37t207.5 119v-156z" />
    <glyph glyph-name="nonbreakingspace" unicode="&#xa0;" horiz-adv-x="1214" 
 />
    <glyph glyph-name="exclamdown" unicode="&#xa1;" horiz-adv-x="635" 
d="M375 1044l24 -802q0 -5 1 -16q3 -154 63 -226h-293l53 1044h152zM426 1296q0 -52 -37 -89.5t-90 -37.5q-52 0 -89.5 37.5t-37.5 89.5t37 88.5t90 36.5t90 -36t37 -89z" />
    <glyph glyph-name="cent" unicode="&#xa2;" horiz-adv-x="1214" 
d="M743 1007v-675h17q64 0 131.5 21t144.5 65l-96 -170q-47 -28 -96 -44.5t-100 -21.5l-1 -215h-120v219q-210 37 -329.5 161.5t-119.5 305.5q0 188 121 320t328 170v215h120l1 -213q42 -3 85.5 -11t88.5 -22v-188q-35 37 -78.5 58t-96.5 25zM623 1004
q-111 -17 -176.5 -102.5t-65.5 -211.5q0 -130 68 -220t174 -101v635z" />
    <glyph glyph-name="sterling" unicode="&#xa3;" horiz-adv-x="1214" 
d="M555 147q-29 25 -60 37.5t-65 12.5q-40 0 -65 -15t-25 -39q0 -19 26 -34t62 -15q33 0 64 13t63 40zM989 1327v-199q-82 60 -154 89.5t-137 29.5q-92 0 -151.5 -49t-59.5 -125q0 -41 37 -111t119 -184h264v-114h-184q47 -80 69.5 -148t22.5 -129q0 -41 -10 -80.5
t-29 -75.5q58 -19 100.5 -28.5t67.5 -9.5q31 0 65 12.5t72 38.5v-211q-28 -22 -60 -32.5t-73 -10.5q-67 0 -132.5 23t-131.5 71q-62 -48 -125 -71t-133 -23q-100 0 -162.5 43.5t-62.5 109.5q0 47 38 90t97 62q19 6 41.5 9t46.5 3q38 0 80 -7.5t92 -23.5v9q0 93 -33 186.5
t-100 192.5h-230v114h132q-59 74 -88 143t-29 134q0 146 119.5 244t302.5 98q57 0 136 -17.5t183 -52.5z" />
    <glyph glyph-name="currency" unicode="&#xa4;" horiz-adv-x="1241" 
d="M926 887q0 125 -89 214t-214 89q-126 0 -215 -89t-89 -214q0 -126 89 -215.5t215 -89.5q125 0 214 89.5t89 215.5zM367 1219q57 43 120 64.5t134 21.5t134.5 -21.5t121.5 -64.5l204 204l82 -80l-205 -206q41 -55 61.5 -118t20.5 -134q0 -73 -20 -135.5t-62 -116.5
l205 -205l-82 -82l-204 205q-59 -44 -122 -65t-132 -21q-72 0 -135.5 21.5t-120.5 64.5l-205 -205l-82 82l207 205q-41 51 -62.5 116t-21.5 136q0 70 21 133t63 119l-207 206l82 80z" />
    <glyph glyph-name="yen" unicode="&#xa5;" horiz-adv-x="1214" 
d="M721 244q0 -107 18 -156t62 -88h-369q45 40 63.5 90t18.5 154v340h-469v110h424l-92 150h-332v110h262l-133 215q-39 63 -85 114.5t-101 94.5h299l360 -600l246 391q21 35 32 65t11 52q0 23 -15 46t-44 46h319l-266 -424h241v-110h-309l-96 -150h405v-110h-450v-340z" />
    <glyph glyph-name="brokenbar" unicode="&#xa6;" 
d="M588 408v-758h-150v758h150zM588 1432v-758h-150v758h150z" />
    <glyph glyph-name="section" unicode="&#xa7;" horiz-adv-x="1214" 
d="M569 748q-91 -14 -138.5 -56t-47.5 -110q0 -71 57 -131t183 -121q97 7 152.5 54.5t55.5 121.5q0 70 -61 126.5t-201 115.5zM887 1186q-62 54 -119 80t-113 26q-83 0 -135.5 -42.5t-52.5 -110.5q0 -60 40.5 -105.5t180.5 -120.5q191 -103 253.5 -183t62.5 -198
q0 -102 -62 -178.5t-178 -117.5q78 -51 116 -115t38 -146q0 -141 -100 -224t-273 -83q-42 0 -97 8t-122 23v195q63 -54 120 -80.5t111 -26.5q84 0 135 43t51 111q0 58 -39.5 103.5t-181.5 121.5q-187 101 -250 179t-63 185q0 112 60.5 192t179.5 124q-79 49 -116.5 112
t-37.5 146q0 141 100 224t273 83q34 0 89 -7.5t130 -23.5v-194z" />
    <glyph glyph-name="dieresis" unicode="&#xa8;" 
d="M590 1280q0 45 34.5 79t80.5 34q45 0 77.5 -33.5t32.5 -79.5q0 -50 -31 -81.5t-79 -31.5q-49 0 -82 32.5t-33 80.5zM207 1280q0 45 33.5 79t78.5 34q47 0 80 -33.5t33 -79.5q0 -49 -31.5 -81t-81.5 -32q-49 0 -80.5 32t-31.5 81z" />
    <glyph glyph-name="copyright" unicode="&#xa9;" horiz-adv-x="1706" 
d="M1053 907q-13 77 -66 118.5t-139 41.5q-105 0 -165 -90.5t-60 -249.5q0 -157 62 -244.5t173 -87.5q82 0 136.5 47t68.5 129h145q-9 -130 -107.5 -211t-248.5 -81q-182 0 -285.5 120t-103.5 334q0 200 109 322.5t286 122.5q142 0 236.5 -75t105.5 -196h-147zM1493 727
q0 130 -47.5 246.5t-136.5 206.5q-93 92 -209 140t-246 48q-129 0 -243.5 -47t-204.5 -137q-93 -93 -143 -211.5t-50 -245.5q0 -126 49 -242t141 -209q92 -91 207.5 -139.5t243.5 -48.5q125 0 242 49t213 142q90 88 137 202.5t47 245.5zM852 1464q152 0 285.5 -54.5
t238.5 -160.5q104 -103 159.5 -238.5t55.5 -283.5q0 -149 -54.5 -281.5t-158.5 -234.5q-110 -107 -245.5 -164t-280.5 -57t-278.5 56t-239.5 163q-106 105 -161.5 238.5t-55.5 279.5q0 147 56 281.5t163 242.5q104 104 236 158.5t280 54.5z" />
    <glyph glyph-name="ordfeminine" unicode="&#xaa;" horiz-adv-x="803" 
d="M786 803l-63 -92q-110 0 -157.5 37.5t-47.5 125.5v201l-32 -8q-283 -70 -283 -156q0 -52 47 -85t123 -33q20 0 46.5 4t61.5 12l-84 -104q-25 -7 -48 -10t-46 -3q-111 0 -183.5 61.5t-72.5 153.5q0 35 13 66.5t38 56.5q47 43 201 76q31 6 49 10q99 21 133.5 41.5
t34.5 54.5q0 45 -44.5 71t-121.5 26q-40 0 -89.5 -13.5t-104.5 -40.5l98 148q49 5 80.5 7.5t54.5 2.5q56 0 101.5 -12.5t80.5 -36.5q46 -31 65 -77.5t19 -145.5v-166q0 -113 26.5 -140t104.5 -32z" />
    <glyph glyph-name="guillemotleft" unicode="&#xab;" horiz-adv-x="713" 
d="M301 135l-235 359l239 360h70l-127 -360l125 -359h-72zM586 135l-236 359l240 360h69l-127 -360l125 -359h-71z" />
    <glyph glyph-name="logicalnot" unicode="&#xac;" horiz-adv-x="1706" 
d="M1452 860v-502h-137v363h-1061v139h1198z" />
    <glyph glyph-name="sfthyphen" unicode="&#xad;" horiz-adv-x="797" 
d="M76 395l114 164l347 -2h10q29 0 64 4.5t73 13.5l-111 -172h-354q-8 0 -18.5 1.5t-14.5 1.5q-14 0 -52 -4.5t-58 -6.5z" />
    <glyph glyph-name="registered" unicode="&#xae;" horiz-adv-x="1706" 
d="M844 1057h-129v-277h133q113 0 162 31.5t49 101.5q0 76 -51 110t-164 34zM872 1159q174 0 261.5 -57.5t87.5 -171.5q0 -89 -50 -148t-141 -77l187 -381h-177l-170 356h-155v-356h-158v835h315zM1493 721q0 134 -46.5 251t-135.5 206q-92 93 -208.5 141.5t-248.5 48.5
q-130 0 -245 -47t-201 -135q-94 -95 -144.5 -214t-50.5 -245q0 -125 48.5 -240.5t139.5 -207.5q90 -92 206.5 -141.5t240.5 -49.5q130 0 246.5 48t212.5 140q90 88 138 202.5t48 242.5zM852 1464q151 0 286 -56t240 -163q103 -104 158 -238t55 -280q0 -151 -55 -283.5
t-160 -234.5q-109 -106 -244.5 -162.5t-279.5 -56.5q-147 0 -280.5 56.5t-239.5 164.5q-105 106 -160 238.5t-55 277.5q0 146 57.5 282.5t165.5 245.5q101 103 231.5 156t280.5 53z" />
    <glyph glyph-name="macron" unicode="&#xaf;" 
d="M242 1210v140h540v-140h-540z" />
    <glyph glyph-name="degree" unicode="&#xb0;" horiz-adv-x="674" 
d="M530 1169q0 81 -55.5 137t-136.5 56t-138 -56t-57 -137t57 -138.5t138 -57.5t136.5 57.5t55.5 138.5zM338 1456q118 0 202.5 -84.5t84.5 -204.5q0 -119 -84 -202.5t-205 -83.5t-204 83t-83 203t84.5 204.5t204.5 84.5z" />
    <glyph glyph-name="plusminus" unicode="&#xb1;" horiz-adv-x="1706" 
d="M1452 170v-141h-1198v141h1198zM924 1192v-340h528v-139h-528v-340h-142v340h-528v139h528v340h142z" />
    <glyph glyph-name="twosuperior" unicode="&#xb2;" horiz-adv-x="801" 
d="M53 551l316 422q7 10 22 30q96 126 96 181q0 52 -41 82t-112 30q-46 0 -103 -16.5t-127 -50.5l78 147q64 12 107.5 17.5t72.5 5.5q125 0 206 -56t81 -139q0 -40 -24.5 -89.5t-98.5 -147.5l-231 -307q59 -10 107 -14.5t85 -4.5q61 0 123.5 14t141.5 45l-72 -149h-627z" />
    <glyph glyph-name="threesuperior" unicode="&#xb3;" horiz-adv-x="801" 
d="M74 690q77 -26 138 -38.5t112 -12.5q104 0 170.5 48t66.5 122q0 69 -57.5 110.5t-155.5 41.5q-31 -1 -57.5 -3.5t-50.5 -7.5v105q2 0 6 -1q42 -3 61 -3q93 0 146 34.5t53 94.5q0 54 -46 87t-122 33q-42 0 -94 -14t-117 -43l53 127q57 13 104 20t81 7q124 0 204 -55.5
t80 -139.5q0 -58 -40 -102t-117 -72q111 -34 166 -89.5t55 -133.5q0 -117 -114 -191.5t-298 -74.5q-39 0 -80 2.5t-84 7.5z" />
    <glyph glyph-name="acute" unicode="&#xb4;" 
d="M336 1118l276 301q27 30 55 46t52 16q31 0 53.5 -24t22.5 -56q0 -26 -16.5 -46t-67.5 -52l-301 -185h-74z" />
    <glyph glyph-name="mu" unicode="&#xb5;" horiz-adv-x="1151" 
d="M385 1071l-129 -600q-7 -32 -10.5 -64.5t-3.5 -68.5q0 -99 52 -153t148 -54q132 0 208.5 92.5t123.5 311.5l115 536h178l-156 -732q-1 -6 -4 -20q-18 -87 -18 -112q0 -37 16.5 -52.5t55.5 -15.5q12 0 18.5 0.5t13.5 1.5l-31 -143q-24 -5 -50 -7.5t-58 -2.5q-63 0 -97 29
t-52 100q-45 -66 -112.5 -98.5t-158.5 -32.5q-82 0 -143 27.5t-113 88.5l-110 -530h-181l318 1499h180z" />
    <glyph glyph-name="paragraph" unicode="&#xb6;" 
d="M958 1393h-120v-1393h-111v1393h-176v-1393h-113v782q-170 8 -271 102.5t-101 245.5q0 157 107.5 253t285.5 96h499v-86z" />
    <glyph glyph-name="glyph121" unicode="&#xb7;" horiz-adv-x="606" 
d="M176 690q0 53 37 89t90 36t90 -36.5t37 -88.5t-37.5 -89.5t-89.5 -37.5q-53 0 -90 37t-37 90z" />
    <glyph glyph-name="cedilla" unicode="&#xb8;" 
d="M250 -397l39 90q59 -38 119 -58t112 -20q57 0 84 22t27 68q0 43 -27.5 64.5t-81.5 21.5q-14 0 -29 -1.5t-32 -4.5v197h63v-115q11 2 23.5 3t38.5 1q88 0 138 -44t50 -122q0 -84 -59.5 -131t-165.5 -47q-59 0 -132.5 18.5t-166.5 57.5z" />
    <glyph glyph-name="onesuperior" unicode="&#xb9;" horiz-adv-x="801" 
d="M260 551q41 31 58.5 60t17.5 75v27v497q-38 2 -99 10q-14 2 -20 3q84 38 149.5 87.5t112.5 108.5v-731q0 -45 13.5 -75.5t44.5 -61.5h-277z" />
    <glyph glyph-name="ordmasculine" unicode="&#xba;" horiz-adv-x="913" 
d="M211 1069q0 -128 70.5 -206.5t183.5 -78.5q105 0 172.5 71t67.5 181q0 121 -72 199t-182 78q-104 0 -172 -69.5t-68 -174.5zM49 1040q0 78 31.5 146t91.5 121q59 50 136 78t159 28q87 0 157 -25.5t126 -78.5t85 -118t29 -136q0 -77 -31.5 -144.5t-91.5 -119.5
q-55 -50 -132.5 -77.5t-162.5 -27.5q-88 0 -156.5 25t-125.5 77q-55 53 -85 118t-30 134z" />
    <glyph glyph-name="guillemotright" unicode="&#xbb;" horiz-adv-x="713" 
d="M412 854l235 -360l-239 -359h-68l125 359l-125 360h72zM127 854l235 -360l-239 -359h-68l125 359l-125 360h72z" />
    <glyph glyph-name="onequarter" unicode="&#xbc;" horiz-adv-x="1872" 
d="M1509 0q27 30 38.5 55.5t11.5 55.5v47h-453l407 614h170l1 -528q41 1 81 12.5t80 34.5l-57 -133h-105v-47q0 -36 11.5 -61t38.5 -50h-224zM1559 244v456l-291 -448q51 -4 102.5 -6t99.5 -2h89zM510 -29l725 1436h125l-725 -1436h-125zM248 606q39 28 55 55t16 72v25v465
q-27 1 -55.5 3.5t-56.5 6.5q79 35 142 81t108 101v-682q0 -41 13 -69.5t42 -57.5h-264z" />
    <glyph glyph-name="onehalf" unicode="&#xbd;" horiz-adv-x="1872" 
d="M1157 0l301 393q9 11 24 32q89 115 89 165q0 49 -39 77.5t-107 28.5q-44 0 -98.5 -15.5t-120.5 -47.5l74 137q52 10 95.5 15.5t76.5 5.5q120 0 196 -52t76 -131q0 -38 -24 -85.5t-90 -133.5l-224 -289q61 -8 106 -12t79 -4q54 0 112 12.5t140 42.5l-68 -139h-598z
M510 -29l725 1436h125l-725 -1436h-125zM248 606q39 28 55 55t16 72v25v465q-27 1 -55.5 3.5t-56.5 6.5q79 35 142 81t108 101v-682q0 -41 13 -69.5t42 -57.5h-264z" />
    <glyph glyph-name="threequarters" unicode="&#xbe;" horiz-adv-x="1872" 
d="M1511 0q27 30 38.5 55.5t11.5 55.5v47h-453l408 614h170v-528q41 1 81 12.5t80 34.5l-57 -133h-104v-47q0 -36 11 -61t38 -50h-224zM1561 244v456l-291 -448q51 -4 102.5 -6t100.5 -2h88zM512 -29l725 1436h125l-725 -1436h-125zM70 737q69 -24 129 -36.5t110 -12.5
q100 0 163 45t63 115q0 64 -55 102.5t-148 38.5q-21 0 -46.5 -2.5t-55.5 -7.5v98q12 -2 25 -3t38 -1q89 0 139.5 32t50.5 87q0 52 -43.5 83.5t-115.5 31.5q-42 0 -91 -13t-112 -41l51 119q64 12 105.5 17.5t68.5 5.5q119 0 195.5 -51.5t76.5 -129.5q0 -53 -37.5 -94.5
t-111.5 -68.5q107 -31 160 -82.5t53 -124.5q0 -109 -110 -179.5t-285 -70.5q-25 0 -61.5 2.5t-93.5 7.5z" />
    <glyph glyph-name="questiondown" unicode="&#xbf;" horiz-adv-x="971" 
d="M659 1053q4 -18 5.5 -35t1.5 -33q0 -64 -24.5 -121t-74.5 -108q-28 -30 -90.5 -85.5t-91.5 -84.5q-40 -41 -61 -93t-21 -108q0 -114 82.5 -189t208.5 -75q54 0 121.5 19t152.5 59l-127 -193q-67 -18 -119 -26.5t-92 -8.5q-188 0 -314 108.5t-126 268.5q0 50 17.5 102.5
t52.5 108.5q44 72 155 168t138 123q23 23 35 55t12 70q0 17 -2 34t-6 33zM690 1294q0 -52 -36.5 -88.5t-90.5 -36.5q-52 0 -88.5 36.5t-36.5 88.5q0 53 36.5 90t88.5 37q53 0 90 -37t37 -90z" />
    <glyph glyph-name="Agrave" unicode="&#xc0;" horiz-adv-x="1268" 
d="M401 659h410l-197 537zM213 188q-9 -21 -13.5 -43.5t-4.5 -46.5q0 -20 14.5 -44t46.5 -54h-328q41 28 73.5 77t66.5 134l391 991q12 28 18 55t6 48q0 24 -11.5 44t-37.5 40h316l442 -1164q31 -79 66.5 -128.5t91.5 -96.5h-398l5 5q55 58 55 85q0 32 -24 94q-3 10 -5 15
l-119 321h-518zM805 1536h-74l-301 185q-51 32 -67.5 52t-16.5 46q0 32 22.5 56t53.5 24q24 0 52 -16t55 -46z" />
    <glyph glyph-name="Aacute" unicode="&#xc1;" horiz-adv-x="1268" 
d="M401 659h410l-197 537zM213 188q-9 -21 -13.5 -43.5t-4.5 -46.5q0 -20 14.5 -44t46.5 -54h-328q41 28 73.5 77t66.5 134l391 991q12 28 18 55t6 48q0 24 -11.5 44t-37.5 40h316l442 -1164q31 -79 66.5 -128.5t91.5 -96.5h-398l5 5q55 58 55 85q0 32 -24 94q-3 10 -5 15
l-119 321h-518zM453 1536l276 301q27 30 55 46t52 16q31 0 53.5 -24t22.5 -56q0 -26 -16.5 -46t-67.5 -52l-301 -185h-74z" />
    <glyph glyph-name="Acircumflex" unicode="&#xc2;" horiz-adv-x="1268" 
d="M401 659h410l-197 537zM213 188q-9 -21 -13.5 -43.5t-4.5 -46.5q0 -20 14.5 -44t46.5 -54h-328q41 28 73.5 77t66.5 134l391 991q12 28 18 55t6 48q0 24 -11.5 44t-37.5 40h316l442 -1164q31 -79 66.5 -128.5t91.5 -96.5h-398l5 5q55 58 55 85q0 32 -24 94q-3 10 -5 15
l-119 321h-518zM334 1536l227 348h134l229 -348h-74l-221 195l-221 -195h-74z" />
    <glyph glyph-name="Atilde" unicode="&#xc3;" horiz-adv-x="1268" 
d="M401 659h410l-197 537zM213 188q-9 -21 -13.5 -43.5t-4.5 -46.5q0 -20 14.5 -44t46.5 -54h-328q41 28 73.5 77t66.5 134l391 991q12 28 18 55t6 48q0 24 -11.5 44t-37.5 40h316l442 -1164q31 -79 66.5 -128.5t91.5 -96.5h-398l5 5q55 58 55 85q0 32 -24 94q-3 10 -5 15
l-119 321h-518zM912 1850q-22 -112 -70.5 -170t-122.5 -58q-12 0 -25.5 1.5t-27.5 4.5l-107 25q-3 1 -8 2q-36 8 -45 8q-42 0 -65 -20t-37 -70h-58q24 117 72 174t125 57q16 0 32.5 -2t30.5 -6l109 -28q9 -3 19 -3.5t32 -0.5q35 0 56.5 21t31.5 65h58z" />
    <glyph glyph-name="Adieresis" unicode="&#xc4;" horiz-adv-x="1268" 
d="M401 659h410l-197 537zM213 188q-9 -21 -13.5 -43.5t-4.5 -46.5q0 -20 14.5 -44t46.5 -54h-328q41 28 73.5 77t66.5 134l391 991q12 28 18 55t6 48q0 24 -11.5 44t-37.5 40h316l442 -1164q31 -79 66.5 -128.5t91.5 -96.5h-398l5 5q55 58 55 85q0 32 -24 94q-3 10 -5 15
l-119 321h-518zM707 1698q0 45 34.5 79t80.5 34q45 0 77.5 -33.5t32.5 -79.5q0 -50 -31 -81.5t-79 -31.5q-49 0 -82 32.5t-33 80.5zM324 1698q0 45 33.5 79t78.5 34q47 0 80 -33.5t33 -79.5q0 -49 -31.5 -81t-81.5 -32q-49 0 -80.5 32t-31.5 81z" />
    <glyph glyph-name="Aring" unicode="&#xc5;" horiz-adv-x="1268" 
d="M467 1704q0 -60 41.5 -101.5t101.5 -41.5t101 41.5t41 101.5q0 59 -41.5 100t-100.5 41q-60 0 -101.5 -40.5t-41.5 -100.5zM360 1704q0 104 72 176t176 72q105 0 177.5 -72t72.5 -176q0 -105 -72.5 -177.5t-177.5 -72.5q-104 0 -176 72.5t-72 177.5zM213 188
q-9 -21 -13.5 -43.5t-4.5 -46.5q0 -20 14.5 -44t46.5 -54h-328q41 28 73.5 77t66.5 134l391 991q12 28 18 55t6 48q0 24 -11.5 44t-37.5 40h316l442 -1164q31 -79 66.5 -128.5t91.5 -96.5h-398q31 26 45.5 48t14.5 42q0 32 -25 98q-2 6 -4 11l-119 321h-518zM401 659h410
l-197 537z" />
    <glyph glyph-name="AE" unicode="&#xc6;" horiz-adv-x="1774" 
d="M1571 1389v-218q-51 39 -113 57.5t-143 18.5q-40 0 -89.5 -6.5t-115.5 -19.5v-392h338v-202q-24 28 -64.5 39.5t-148.5 11.5h-125v-498q80 -12 143 -18t109 -6q106 0 200.5 28.5t184.5 87.5l-94 -272h-844q44 39 62 88t18 158v264h-461l-203 -315q-20 -31 -31.5 -60
t-11.5 -47q0 -14 10.5 -32t43.5 -56h-357q41 35 86.5 90t91.5 127l631 981q34 52 43.5 73.5t9.5 37.5q0 21 -8 39.5t-26 40.5h864zM512 651h377v600z" />
    <glyph glyph-name="Ccedilla" unicode="&#xc7;" horiz-adv-x="1341" 
d="M1296 279l-104 -250q-98 -32 -184 -48t-164 -16q-116 0 -226 30t-208 89q-156 93 -243 255t-87 357q0 146 63 284t179 245q106 97 242 147.5t290 50.5q73 0 153.5 -13.5t172.5 -41.5v-223q-94 50 -178 74t-164 24q-233 0 -373.5 -144t-140.5 -382q0 -261 145.5 -421.5
t382.5 -160.5q97 0 206.5 35.5t237.5 108.5zM520 -397l39 90q59 -38 119 -58t112 -20q57 0 84 22t27 68q0 43 -27.5 64.5t-81.5 21.5q-14 0 -29 -1.5t-32 -4.5v197h63v-115q11 2 23.5 3t38.5 1q88 0 138 -44t50 -122q0 -84 -59.5 -131t-165.5 -47q-59 0 -132.5 18.5
t-166.5 57.5z" />
    <glyph glyph-name="Egrave" unicode="&#xc8;" horiz-adv-x="1077" 
d="M113 0q44 40 63 90.5t19 155.5v899q0 105 -19 155t-63 89h761v-218q-51 40 -112 58t-141 18q-41 0 -92 -6.5t-115 -19.5v-392h340v-202q-24 28 -65 39.5t-150 11.5h-125v-498q79 -12 143 -18t111 -6q106 0 200 28.5t185 87.5l-97 -272h-843zM700 1536h-74l-301 185
q-51 32 -67.5 52t-16.5 46q0 32 22.5 56t53.5 24q24 0 52 -16t55 -46z" />
    <glyph glyph-name="Eacute" unicode="&#xc9;" horiz-adv-x="1077" 
d="M113 0q44 40 63 90.5t19 155.5v899q0 105 -19 155t-63 89h761v-218q-51 40 -112 58t-141 18q-41 0 -92 -6.5t-115 -19.5v-392h340v-202q-24 28 -65 39.5t-150 11.5h-125v-498q79 -12 143 -18t111 -6q106 0 200 28.5t185 87.5l-97 -272h-843zM348 1536l276 301
q27 30 55 46t52 16q31 0 53.5 -24t22.5 -56q0 -26 -16.5 -46t-67.5 -52l-301 -185h-74z" />
    <glyph glyph-name="Ecircumflex" unicode="&#xca;" horiz-adv-x="1077" 
d="M113 0q44 40 63 90.5t19 155.5v899q0 105 -19 155t-63 89h761v-218q-51 40 -112 58t-141 18q-41 0 -92 -6.5t-115 -19.5v-392h340v-202q-24 28 -65 39.5t-150 11.5h-125v-498q79 -12 143 -18t111 -6q106 0 200 28.5t185 87.5l-97 -272h-843zM229 1536l227 348h134
l229 -348h-74l-221 195l-221 -195h-74z" />
    <glyph glyph-name="Edieresis" unicode="&#xcb;" horiz-adv-x="1077" 
d="M113 0q44 40 63 90.5t19 155.5v899q0 105 -19 155t-63 89h761v-218q-51 40 -112 58t-141 18q-41 0 -92 -6.5t-115 -19.5v-392h340v-202q-24 28 -65 39.5t-150 11.5h-125v-498q79 -12 143 -18t111 -6q106 0 200 28.5t185 87.5l-97 -272h-843zM602 1698q0 45 34.5 79
t80.5 34q45 0 77.5 -33.5t32.5 -79.5q0 -50 -31 -81.5t-79 -31.5q-49 0 -82 32.5t-33 80.5zM219 1698q0 45 33.5 79t78.5 34q47 0 80 -33.5t33 -79.5q0 -49 -31.5 -81t-81.5 -32q-49 0 -80.5 32t-31.5 81z" />
    <glyph glyph-name="Igrave" unicode="&#xcc;" horiz-adv-x="618" 
d="M418 246q0 -105 18.5 -155.5t63.5 -90.5h-381q45 40 63.5 90.5t18.5 155.5v899q0 105 -18.5 155t-63.5 89h381q-45 -39 -63.5 -89t-18.5 -155v-899zM485 1536h-74l-301 185q-51 32 -67.5 52t-16.5 46q0 32 22.5 56t53.5 24q24 0 52 -16t55 -46z" />
    <glyph glyph-name="Iacute" unicode="&#xcd;" horiz-adv-x="618" 
d="M418 246q0 -105 18.5 -155.5t63.5 -90.5h-381q45 40 63.5 90.5t18.5 155.5v899q0 105 -18.5 155t-63.5 89h381q-45 -39 -63.5 -89t-18.5 -155v-899zM133 1536l276 301q27 30 55 46t52 16q31 0 53.5 -24t22.5 -56q0 -26 -16.5 -46t-67.5 -52l-301 -185h-74z" />
    <glyph glyph-name="Icircumflex" unicode="&#xce;" horiz-adv-x="618" 
d="M418 246q0 -105 18.5 -155.5t63.5 -90.5h-381q45 40 63.5 90.5t18.5 155.5v899q0 105 -18.5 155t-63.5 89h381q-45 -39 -63.5 -89t-18.5 -155v-899zM14 1536l227 348h134l229 -348h-74l-221 195l-221 -195h-74z" />
    <glyph glyph-name="Idieresis" unicode="&#xcf;" horiz-adv-x="618" 
d="M418 246q0 -105 18.5 -155.5t63.5 -90.5h-381q45 40 63.5 90.5t18.5 155.5v899q0 105 -18.5 155t-63.5 89h381q-45 -39 -63.5 -89t-18.5 -155v-899zM387 1698q0 45 34.5 79t80.5 34q45 0 77.5 -33.5t32.5 -79.5q0 -50 -31 -81.5t-79 -31.5q-49 0 -82 32.5t-33 80.5z
M4 1698q0 45 33.5 79t78.5 34q47 0 80 -33.5t33 -79.5q0 -49 -31.5 -81t-81.5 -32q-49 0 -80.5 32t-31.5 81z" />
    <glyph glyph-name="Eth" unicode="&#xd0;" horiz-adv-x="1473" 
d="M397 168q76 -12 131 -17.5t95 -5.5q232 0 383 156.5t151 396.5q0 246 -150 395.5t-399 149.5q-51 0 -104 -7t-107 -22v-395h377v-123h-377v-528zM98 0q44 39 62 88t18 158v450h-178v123h178v326q0 109 -18 157.5t-62 86.5h484q195 0 322 -38t235 -124q121 -96 182 -225
t61 -287q0 -143 -45.5 -265t-136.5 -221q-111 -121 -270.5 -175t-413.5 -54h-418z" />
    <glyph glyph-name="Ntilde" unicode="&#xd1;" horiz-adv-x="1563" 
d="M1450 1389q-45 -39 -63.5 -89t-18.5 -155v-1177q-73 2 -138.5 47t-164.5 171l-717 904v-844q0 -109 18 -158t62 -88h-315q44 40 63 90.5t19 155.5v899q0 105 -19 155t-63 89h282l822 -1043v799q0 105 -19 155t-63 89h315zM1086 1850q-22 -112 -70.5 -170t-122.5 -58
q-12 0 -25.5 1.5t-27.5 4.5l-107 25q-3 1 -8 2q-36 8 -45 8q-42 0 -65 -20t-37 -70h-58q24 117 72 174t125 57q16 0 32.5 -2t30.5 -6l109 -28q9 -3 19 -3.5t32 -0.5q35 0 56.5 21t31.5 65h58z" />
    <glyph glyph-name="Ograve" unicode="&#xd2;" horiz-adv-x="1688" 
d="M850 1274q-232 0 -382.5 -159t-150.5 -406q0 -255 149 -423.5t372 -168.5q231 0 381.5 159.5t150.5 407.5q0 255 -149 422.5t-371 167.5zM842 -33q-159 0 -299.5 51t-241.5 146q-106 100 -163.5 235.5t-57.5 284.5q0 117 36.5 227t106.5 205q109 147 269.5 226t349.5 79
q162 0 302.5 -50.5t241.5 -145.5q108 -100 165 -236.5t57 -294.5q0 -145 -64 -284t-180 -246q-104 -97 -237 -147t-285 -50zM1020 1536h-74l-301 185q-51 32 -67.5 52t-16.5 46q0 32 22.5 56t53.5 24q24 0 52 -16t55 -46z" />
    <glyph glyph-name="Oacute" unicode="&#xd3;" horiz-adv-x="1688" 
d="M850 1274q-232 0 -382.5 -159t-150.5 -406q0 -255 149 -423.5t372 -168.5q231 0 381.5 159.5t150.5 407.5q0 255 -149 422.5t-371 167.5zM842 -33q-159 0 -299.5 51t-241.5 146q-106 100 -163.5 235.5t-57.5 284.5q0 117 36.5 227t106.5 205q109 147 269.5 226t349.5 79
q162 0 302.5 -50.5t241.5 -145.5q108 -100 165 -236.5t57 -294.5q0 -145 -64 -284t-180 -246q-104 -97 -237 -147t-285 -50zM668 1536l276 301q27 30 55 46t52 16q31 0 53.5 -24t22.5 -56q0 -26 -16.5 -46t-67.5 -52l-301 -185h-74z" />
    <glyph glyph-name="Ocircumflex" unicode="&#xd4;" horiz-adv-x="1688" 
d="M850 1274q-232 0 -382.5 -159t-150.5 -406q0 -255 149 -423.5t372 -168.5q231 0 381.5 159.5t150.5 407.5q0 255 -149 422.5t-371 167.5zM842 -33q-159 0 -299.5 51t-241.5 146q-106 100 -163.5 235.5t-57.5 284.5q0 117 36.5 227t106.5 205q109 147 269.5 226t349.5 79
q162 0 302.5 -50.5t241.5 -145.5q108 -100 165 -236.5t57 -294.5q0 -145 -64 -284t-180 -246q-104 -97 -237 -147t-285 -50zM549 1536l227 348h134l229 -348h-74l-221 195l-221 -195h-74z" />
    <glyph glyph-name="Otilde" unicode="&#xd5;" horiz-adv-x="1688" 
d="M850 1274q-232 0 -382.5 -159t-150.5 -406q0 -255 149 -423.5t372 -168.5q231 0 381.5 159.5t150.5 407.5q0 255 -149 422.5t-371 167.5zM842 -33q-159 0 -299.5 51t-241.5 146q-106 100 -163.5 235.5t-57.5 284.5q0 117 36.5 227t106.5 205q109 147 269.5 226t349.5 79
q162 0 302.5 -50.5t241.5 -145.5q108 -100 165 -236.5t57 -294.5q0 -145 -64 -284t-180 -246q-104 -97 -237 -147t-285 -50zM1127 1850q-22 -112 -70.5 -170t-122.5 -58q-12 0 -25.5 1.5t-27.5 4.5l-107 25q-3 1 -8 2q-36 8 -45 8q-42 0 -65 -20t-37 -70h-58q24 117 72 174
t125 57q16 0 32.5 -2t30.5 -6l109 -28q9 -3 19 -3.5t32 -0.5q35 0 56.5 21t31.5 65h58z" />
    <glyph glyph-name="Odieresis" unicode="&#xd6;" horiz-adv-x="1688" 
d="M850 1274q-232 0 -382.5 -159t-150.5 -406q0 -255 149 -423.5t372 -168.5q231 0 381.5 159.5t150.5 407.5q0 255 -149 422.5t-371 167.5zM842 -33q-159 0 -299.5 51t-241.5 146q-106 100 -163.5 235.5t-57.5 284.5q0 117 36.5 227t106.5 205q109 147 269.5 226t349.5 79
q162 0 302.5 -50.5t241.5 -145.5q108 -100 165 -236.5t57 -294.5q0 -145 -64 -284t-180 -246q-104 -97 -237 -147t-285 -50zM922 1698q0 45 34.5 79t80.5 34q45 0 77.5 -33.5t32.5 -79.5q0 -50 -31 -81.5t-79 -31.5q-49 0 -82 32.5t-33 80.5zM539 1698q0 45 33.5 79t78.5 34
q47 0 80 -33.5t33 -79.5q0 -49 -31.5 -81t-81.5 -32q-49 0 -80.5 32t-31.5 81z" />
    <glyph glyph-name="multiply" unicode="&#xd7;" horiz-adv-x="1706" 
d="M860 709l469 469l98 -99l-469 -469l469 -469l-98 -96l-469 467l-469 -467l-98 96l469 469l-469 469l98 99z" />
    <glyph glyph-name="Oslash" unicode="&#xd8;" horiz-adv-x="1688" 
d="M1223 1102l-664 -897q67 -44 137.5 -66t141.5 -22q230 0 380 159.5t150 407.5q0 125 -36 228.5t-109 189.5zM461 293l661 897q-65 42 -133.5 63t-140.5 21q-235 0 -383 -160t-148 -418q0 -115 36 -216.5t108 -186.5zM1341 1262q130 -104 197.5 -248.5t67.5 -319.5
q0 -146 -63.5 -285t-178.5 -245q-104 -97 -237 -147t-285 -50q-104 0 -200.5 22.5t-188.5 67.5l-103 -139h-164l154 211q-129 109 -194.5 252t-65.5 315q0 146 63 284t179 245q106 97 241 147.5t289 50.5q98 0 191.5 -21.5t185.5 -66.5l102 140h164z" />
    <glyph glyph-name="Ugrave" unicode="&#xd9;" horiz-adv-x="1489" 
d="M1087 0v106q-102 -73 -205 -109t-210 -36q-122 0 -217 40t-164 120q-54 63 -77.5 146.5t-23.5 224.5v653q0 105 -18.5 155t-62.5 89h380q-44 -39 -62.5 -89t-18.5 -155v-610q0 -143 14 -212t47 -110q40 -49 106.5 -73.5t159.5 -24.5q76 0 142 22.5t116 65.5
q44 36 63 93.5t19 156.5v692q0 109 -18 157.5t-62 86.5h381q-44 -38 -63 -91t-19 -153v-899q0 -105 19 -155.5t63 -90.5h-289zM940 1536h-74l-301 185q-51 32 -67.5 52t-16.5 46q0 32 22.5 56t53.5 24q24 0 52 -16t55 -46z" />
    <glyph glyph-name="Uacute" unicode="&#xda;" horiz-adv-x="1489" 
d="M1087 0v106q-102 -73 -205 -109t-210 -36q-122 0 -217 40t-164 120q-54 63 -77.5 146.5t-23.5 224.5v653q0 105 -18.5 155t-62.5 89h380q-44 -39 -62.5 -89t-18.5 -155v-610q0 -143 14 -212t47 -110q40 -49 106.5 -73.5t159.5 -24.5q76 0 142 22.5t116 65.5
q44 36 63 93.5t19 156.5v692q0 109 -18 157.5t-62 86.5h381q-44 -38 -63 -91t-19 -153v-899q0 -105 19 -155.5t63 -90.5h-289zM588 1536l276 301q27 30 55 46t52 16q31 0 53.5 -24t22.5 -56q0 -26 -16.5 -46t-67.5 -52l-301 -185h-74z" />
    <glyph glyph-name="Ucircumflex" unicode="&#xdb;" horiz-adv-x="1489" 
d="M1087 0v106q-102 -73 -205 -109t-210 -36q-122 0 -217 40t-164 120q-54 63 -77.5 146.5t-23.5 224.5v653q0 105 -18.5 155t-62.5 89h380q-44 -39 -62.5 -89t-18.5 -155v-610q0 -143 14 -212t47 -110q40 -49 106.5 -73.5t159.5 -24.5q76 0 142 22.5t116 65.5
q44 36 63 93.5t19 156.5v692q0 109 -18 157.5t-62 86.5h381q-44 -38 -63 -91t-19 -153v-899q0 -105 19 -155.5t63 -90.5h-289zM469 1536l227 348h134l229 -348h-74l-221 195l-221 -195h-74z" />
    <glyph glyph-name="Udieresis" unicode="&#xdc;" horiz-adv-x="1489" 
d="M1087 0v106q-102 -73 -205 -109t-210 -36q-122 0 -217 40t-164 120q-54 63 -77.5 146.5t-23.5 224.5v653q0 105 -18.5 155t-62.5 89h380q-44 -39 -62.5 -89t-18.5 -155v-610q0 -143 14 -212t47 -110q40 -49 106.5 -73.5t159.5 -24.5q76 0 142 22.5t116 65.5
q44 36 63 93.5t19 156.5v692q0 109 -18 157.5t-62 86.5h381q-44 -38 -63 -91t-19 -153v-899q0 -105 19 -155.5t63 -90.5h-289zM842 1698q0 45 34.5 79t80.5 34q45 0 77.5 -33.5t32.5 -79.5q0 -50 -31 -81.5t-79 -31.5q-49 0 -82 32.5t-33 80.5zM459 1698q0 45 33.5 79
t78.5 34q47 0 80 -33.5t33 -79.5q0 -49 -31.5 -81t-81.5 -32q-49 0 -80.5 32t-31.5 81z" />
    <glyph glyph-name="Yacute" unicode="&#xdd;" horiz-adv-x="1016" 
d="M616 246q0 -105 19 -155.5t63 -90.5h-383q45 40 63.5 90.5t18.5 155.5v383l-340 551q-39 62 -84.5 113.5t-101.5 95.5h307l361 -605l243 394q22 36 33.5 65.5t11.5 50.5q0 24 -14.5 47.5t-44.5 47.5h324l-476 -764v-379zM332 1536l276 301q27 30 55 46t52 16
q31 0 53.5 -24t22.5 -56q0 -26 -16.5 -46t-67.5 -52l-301 -185h-74z" />
    <glyph glyph-name="Thorn" unicode="&#xde;" horiz-adv-x="1184" 
d="M412 246q0 -105 18.5 -155.5t63.5 -90.5h-381q44 40 63 90.5t19 155.5v899q0 102 -19 153t-63 91h381q-45 -39 -63.5 -89t-18.5 -155v-80q49 5 88 7.5t73 2.5q252 0 392.5 -101.5t140.5 -281.5q0 -167 -122 -271t-322 -104q-36 0 -75.5 4t-86.5 13q188 35 283.5 118.5
t95.5 213.5q0 119 -83.5 189.5t-226.5 70.5q-30 0 -70.5 -5t-86.5 -14v-661z" />
    <glyph glyph-name="germandbls" unicode="&#xdf;" horiz-adv-x="1180" 
d="M143 801h-90q19 38 61 102q8 12 11 17q12 20 15 66q1 23 3 35q2 10 6 31q31 179 97 246q56 58 133.5 87.5t173.5 29.5q152 0 254 -83t102 -204q0 -67 -30.5 -120t-133.5 -136q-5 -4 -14 -11q-39 -30 -39 -50q0 -29 95 -79q41 -22 64 -35q131 -77 193 -167t62 -202
q0 -109 -60 -198t-163 -134q-34 -15 -70.5 -22t-79.5 -7q-56 0 -115 13t-124 38l-66 209q73 -53 138 -79.5t122 -26.5q91 0 155 60t64 145q0 78 -56.5 142t-220.5 157q-17 10 -48 27q-129 72 -129 122q0 22 14 46t47 57q27 27 82 72q119 97 119 181q0 72 -48.5 117
t-125.5 45q-57 0 -104 -28t-70 -76q-19 -38 -27 -83t-8 -116v-65v-742q0 -64 16.5 -107t52.5 -75h-327q37 32 53 75t16 107v619z" />
    <glyph glyph-name="agrave" unicode="&#xe0;" horiz-adv-x="1071" 
d="M1049 135l-84 -131q-148 0 -211.5 53.5t-63.5 178.5v288q-16 -4 -49 -13q-371 -101 -371 -220q0 -76 62 -123t164 -47q28 0 64 5.5t81 16.5l-111 -149q-37 -9 -67.5 -13t-59.5 -4q-149 0 -245.5 87t-96.5 219q0 50 18 95t52 81q62 62 267 108q42 9 65 15q137 31 181 59.5
t44 77.5q0 63 -60 101t-161 38q-53 0 -118 -19t-142 -57l131 209q51 7 96.5 11t83.5 4q75 0 136 -17.5t108 -52.5q61 -45 86.5 -112t25.5 -208v-235q0 -162 35 -200t140 -46zM713 1118h-74l-301 185q-51 32 -67.5 52t-16.5 46q0 32 22.5 56t53.5 24q24 0 52 -16t55 -46z" />
    <glyph glyph-name="aacute" unicode="&#xe1;" horiz-adv-x="1071" 
d="M1049 135l-84 -131q-148 0 -211.5 53.5t-63.5 178.5v288q-16 -4 -49 -13q-371 -101 -371 -220q0 -76 62 -123t164 -47q28 0 64 5.5t81 16.5l-111 -149q-37 -9 -67.5 -13t-59.5 -4q-149 0 -245.5 87t-96.5 219q0 50 18 95t52 81q62 62 267 108q42 9 65 15q137 31 181 59.5
t44 77.5q0 63 -60 101t-161 38q-53 0 -118 -19t-142 -57l131 209q51 7 96.5 11t83.5 4q75 0 136 -17.5t108 -52.5q61 -45 86.5 -112t25.5 -208v-235q0 -162 35 -200t140 -46zM361 1118l276 301q27 30 55 46t52 16q31 0 53.5 -24t22.5 -56q0 -26 -16.5 -46t-67.5 -52
l-301 -185h-74z" />
    <glyph glyph-name="acircumflex" unicode="&#xe2;" horiz-adv-x="1071" 
d="M1049 135l-84 -131q-148 0 -211.5 53.5t-63.5 178.5v288q-16 -4 -49 -13q-371 -101 -371 -220q0 -76 62 -123t164 -47q28 0 64 5.5t81 16.5l-111 -149q-37 -9 -67.5 -13t-59.5 -4q-149 0 -245.5 87t-96.5 219q0 50 18 95t52 81q62 62 267 108q42 9 65 15q137 31 181 59.5
t44 77.5q0 63 -60 101t-161 38q-53 0 -118 -19t-142 -57l131 209q51 7 96.5 11t83.5 4q75 0 136 -17.5t108 -52.5q61 -45 86.5 -112t25.5 -208v-235q0 -162 35 -200t140 -46zM242 1118l227 348h134l229 -348h-74l-221 195l-221 -195h-74z" />
    <glyph glyph-name="atilde" unicode="&#xe3;" horiz-adv-x="1071" 
d="M1049 135l-84 -131q-148 0 -211.5 53.5t-63.5 178.5v288q-16 -4 -49 -13q-371 -101 -371 -220q0 -76 62 -123t164 -47q28 0 64 5.5t81 16.5l-111 -149q-37 -9 -67.5 -13t-59.5 -4q-149 0 -245.5 87t-96.5 219q0 50 18 95t52 81q62 62 267 108q42 9 65 15q137 31 181 59.5
t44 77.5q0 63 -60 101t-161 38q-53 0 -118 -19t-142 -57l131 209q51 7 96.5 11t83.5 4q75 0 136 -17.5t108 -52.5q61 -45 86.5 -112t25.5 -208v-235q0 -162 35 -200t140 -46zM820 1432q-22 -112 -70.5 -170t-122.5 -58q-12 0 -25.5 1.5t-27.5 4.5l-107 25q-3 1 -8 2
q-36 8 -45 8q-42 0 -65 -20t-37 -70h-58q24 117 72 174t125 57q16 0 32.5 -2t30.5 -6l109 -28q9 -3 19 -3.5t32 -0.5q35 0 56.5 21t31.5 65h58z" />
    <glyph glyph-name="adieresis" unicode="&#xe4;" horiz-adv-x="1071" 
d="M1049 135l-84 -131q-148 0 -211.5 53.5t-63.5 178.5v288q-16 -4 -49 -13q-371 -101 -371 -220q0 -76 62 -123t164 -47q28 0 64 5.5t81 16.5l-111 -149q-37 -9 -67.5 -13t-59.5 -4q-149 0 -245.5 87t-96.5 219q0 50 18 95t52 81q62 62 267 108q42 9 65 15q137 31 181 59.5
t44 77.5q0 63 -60 101t-161 38q-53 0 -118 -19t-142 -57l131 209q51 7 96.5 11t83.5 4q75 0 136 -17.5t108 -52.5q61 -45 86.5 -112t25.5 -208v-235q0 -162 35 -200t140 -46zM615 1280q0 45 34.5 79t80.5 34q45 0 77.5 -33.5t32.5 -79.5q0 -50 -31 -81.5t-79 -31.5
q-49 0 -82 32.5t-33 80.5zM232 1280q0 45 33.5 79t78.5 34q47 0 80 -33.5t33 -79.5q0 -49 -31.5 -81t-81.5 -32q-49 0 -80.5 32t-31.5 81z" />
    <glyph glyph-name="aring" unicode="&#xe5;" horiz-adv-x="1071" 
d="M393 1317q0 -60 41.5 -100.5t102.5 -40.5q59 0 99 40.5t40 100.5t-40 100.5t-99 40.5q-61 0 -102.5 -41t-41.5 -100zM287 1317q0 104 71.5 176t176.5 72q104 0 175.5 -72t71.5 -176q0 -105 -71.5 -176.5t-175.5 -71.5q-105 0 -176.5 71.5t-71.5 176.5zM1049 135l-84 -131
q-148 0 -211.5 53.5t-63.5 178.5v288q-16 -4 -49 -13q-371 -101 -371 -220q0 -76 62 -123t164 -47q28 0 64 5.5t81 16.5l-111 -149q-37 -9 -67.5 -13t-59.5 -4q-149 0 -245.5 87t-96.5 219q0 50 18 95t52 81q62 62 267 108q42 9 65 15q137 31 181 59.5t44 77.5q0 63 -60 101
t-161 38q-53 0 -118 -19t-142 -57l131 209q51 7 96.5 11t83.5 4q75 0 136 -17.5t108 -52.5q61 -45 86.5 -112t25.5 -208v-235q0 -162 35 -200t140 -46z" />
    <glyph glyph-name="ae" unicode="&#xe6;" horiz-adv-x="1743" 
d="M926 647h522q-6 103 -77.5 168.5t-174.5 65.5q-113 0 -183 -61t-87 -173zM690 524q-32 -9 -91 -26q-329 -93 -329 -209q0 -76 62 -122t164 -46q28 0 64 5.5t81 16.5l-111 -149q-37 -9 -67.5 -13t-59.5 -4q-149 0 -245.5 87t-96.5 219q0 50 18 95t52 81q62 62 267 108
q42 9 65 15q137 31 181 59.5t44 77.5q0 63 -60 101t-161 38q-53 0 -118 -19t-142 -57l131 209q51 7 95 11t79 4q119 0 197 -37t122 -113q79 80 172.5 119t206.5 39q207 0 329.5 -135.5t125.5 -368.5h-751q7 -183 114.5 -290t282.5 -107q78 0 164 25.5t188 78.5l-109 -188
q-94 -33 -167.5 -48.5t-133.5 -15.5q-249 0 -406 151.5t-157 395.5v12z" />
    <glyph glyph-name="ccedilla" unicode="&#xe7;" horiz-adv-x="1032" 
d="M879 768q-74 46 -139.5 69t-123.5 23q-146 0 -234.5 -94.5t-88.5 -249.5q0 -168 111.5 -278.5t279.5 -110.5q71 0 148 22t174 70l-107 -184q-57 -36 -118.5 -53t-131.5 -17q-253 0 -417 144.5t-164 365.5q0 225 161 379t398 154q37 0 100 -6.5t152 -18.5v-215zM316 -397
l39 90q59 -38 119 -58t112 -20q57 0 84 22t27 68q0 43 -27.5 64.5t-81.5 21.5q-14 0 -29 -1.5t-32 -4.5v197h63v-115q11 2 23.5 3t38.5 1q88 0 138 -44t50 -122q0 -84 -59.5 -131t-165.5 -47q-59 0 -132.5 18.5t-166.5 57.5z" />
    <glyph glyph-name="egrave" unicode="&#xe8;" horiz-adv-x="1114" 
d="M299 647h520q-6 103 -76 168.5t-174 65.5q-112 0 -184 -62.5t-86 -171.5zM285 510q7 -182 115.5 -289.5t283.5 -107.5q78 0 164.5 25.5t187.5 78.5l-108 -188q-87 -32 -162 -48t-141 -16q-243 0 -400 147t-157 373q0 232 144.5 380.5t369.5 148.5q207 0 329 -135.5
t125 -368.5h-751zM760 1118h-74l-301 185q-51 32 -67.5 52t-16.5 46q0 32 22.5 56t53.5 24q24 0 52 -16t55 -46z" />
    <glyph glyph-name="eacute" unicode="&#xe9;" horiz-adv-x="1114" 
d="M299 647h520q-6 103 -76 168.5t-174 65.5q-112 0 -184 -62.5t-86 -171.5zM285 510q7 -182 115.5 -289.5t283.5 -107.5q78 0 164.5 25.5t187.5 78.5l-108 -188q-87 -32 -162 -48t-141 -16q-243 0 -400 147t-157 373q0 232 144.5 380.5t369.5 148.5q207 0 329 -135.5
t125 -368.5h-751zM408 1118l276 301q27 30 55 46t52 16q31 0 53.5 -24t22.5 -56q0 -26 -16.5 -46t-67.5 -52l-301 -185h-74z" />
    <glyph glyph-name="ecircumflex" unicode="&#xea;" horiz-adv-x="1114" 
d="M299 647h520q-6 103 -76 168.5t-174 65.5q-112 0 -184 -62.5t-86 -171.5zM285 510q7 -182 115.5 -289.5t283.5 -107.5q78 0 164.5 25.5t187.5 78.5l-108 -188q-87 -32 -162 -48t-141 -16q-243 0 -400 147t-157 373q0 232 144.5 380.5t369.5 148.5q207 0 329 -135.5
t125 -368.5h-751zM289 1118l227 348h134l229 -348h-74l-221 195l-221 -195h-74z" />
    <glyph glyph-name="edieresis" unicode="&#xeb;" horiz-adv-x="1114" 
d="M299 647h520q-6 103 -76 168.5t-174 65.5q-112 0 -184 -62.5t-86 -171.5zM285 510q7 -182 115.5 -289.5t283.5 -107.5q78 0 164.5 25.5t187.5 78.5l-108 -188q-87 -32 -162 -48t-141 -16q-243 0 -400 147t-157 373q0 232 144.5 380.5t369.5 148.5q207 0 329 -135.5
t125 -368.5h-751zM662 1280q0 45 34.5 79t80.5 34q45 0 77.5 -33.5t32.5 -79.5q0 -50 -31 -81.5t-79 -31.5q-49 0 -82 32.5t-33 80.5zM279 1280q0 45 33.5 79t78.5 34q47 0 80 -33.5t33 -79.5q0 -49 -31.5 -81t-81.5 -32q-49 0 -80.5 32t-31.5 81z" />
    <glyph glyph-name="igrave" unicode="&#xec;" horiz-adv-x="492" 
d="M340 182q0 -64 16.5 -107t53.5 -75h-326q37 32 53.5 75t16.5 107v606q0 65 -17 109t-53 76q86 2 148 7.5t108 14.5v-813zM407 1118h-74l-301 185q-51 32 -67.5 52t-16.5 46q0 32 22.5 56t53.5 24q24 0 52 -16t55 -46z" />
    <glyph glyph-name="iacute" unicode="&#xed;" horiz-adv-x="492" 
d="M340 182q0 -64 16.5 -107t53.5 -75h-326q37 32 53.5 75t16.5 107v606q0 65 -17 109t-53 76q86 2 148 7.5t108 14.5v-813zM55 1118l276 301q27 30 55 46t52 16q31 0 53.5 -24t22.5 -56q0 -26 -16.5 -46t-67.5 -52l-301 -185h-74z" />
    <glyph glyph-name="icircumflex" unicode="&#xee;" horiz-adv-x="492" 
d="M340 182q0 -64 16.5 -107t53.5 -75h-326q37 32 53.5 75t16.5 107v606q0 65 -17 109t-53 76q86 2 148 7.5t108 14.5v-813zM-64 1118l227 348h134l229 -348h-74l-221 195l-221 -195h-74z" />
    <glyph glyph-name="idieresis" unicode="&#xef;" horiz-adv-x="492" 
d="M340 182q0 -64 16.5 -107t53.5 -75h-326q37 32 53.5 75t16.5 107v606q0 65 -17 109t-53 76q86 2 148 7.5t108 14.5v-813zM309 1280q0 45 34.5 79t80.5 34q45 0 77.5 -33.5t32.5 -79.5q0 -50 -31 -81.5t-79 -31.5q-49 0 -82 32.5t-33 80.5zM-74 1280q0 45 33.5 79t78.5 34
q47 0 80 -33.5t33 -79.5q0 -49 -31.5 -81t-81.5 -32q-49 0 -80.5 32t-31.5 81z" />
    <glyph glyph-name="eth" unicode="&#xf0;" horiz-adv-x="1219" 
d="M547 1294q-20 24 -47 45.5t-62 40.5q42 11 85 35t89 62l99 -107l202 86l48 -104l-168 -74q184 -247 265 -432.5t81 -356.5q0 -117 -36.5 -208t-113.5 -164q-76 -71 -179 -110.5t-214 -39.5q-117 0 -209 36t-168 112q-74 74 -113.5 167t-39.5 193q0 228 157.5 376
t401.5 148q54 0 99.5 -9t84.5 -27q-37 60 -81.5 121.5t-96.5 123.5l-277 -127l-47 105zM600 862q-141 0 -231 -100t-90 -258q0 -172 96 -283.5t243 -111.5q142 0 231 100t89 260q0 172 -95 282.5t-243 110.5z" />
    <glyph glyph-name="ntilde" unicode="&#xf1;" horiz-adv-x="1145" 
d="M332 182q0 -64 16.5 -107t52.5 -75h-327q37 32 53 75t16 107v606q0 65 -16.5 109t-52.5 76h22q49 0 103.5 5.5t119.5 16.5l9 -155q75 80 151 117.5t162 37.5q162 0 263.5 -98.5t101.5 -257.5v-457q0 -64 16 -107t53 -75h-330q37 32 53.5 75t16.5 107v348
q0 159 -57.5 231.5t-182.5 72.5q-130 0 -186.5 -66.5t-56.5 -222.5v-363zM873 1432q-22 -112 -70.5 -170t-122.5 -58q-12 0 -25.5 1.5t-27.5 4.5l-107 25q-3 1 -8 2q-36 8 -45 8q-42 0 -65 -20t-37 -70h-58q24 117 72 174t125 57q16 0 32.5 -2t30.5 -6l109 -28q9 -3 19 -3.5
t32 -0.5q35 0 56.5 21t31.5 65h58z" />
    <glyph glyph-name="ograve" unicode="&#xf2;" horiz-adv-x="1219" 
d="M281 516q0 -182 93.5 -294.5t243.5 -112.5q141 0 230.5 100.5t89.5 259.5q0 171 -95.5 282t-242.5 111q-138 0 -228.5 -98.5t-90.5 -247.5zM66 475q0 110 41.5 206.5t121.5 172.5q77 72 180 112t214 40q115 0 208 -37t168 -113q74 -74 113 -166.5t39 -193.5
q0 -111 -41 -207.5t-121 -171.5q-76 -71 -179 -110.5t-214 -39.5q-117 0 -209 36t-168 112q-74 74 -113.5 167.5t-39.5 192.5zM786 1118h-74l-301 185q-51 32 -67.5 52t-16.5 46q0 32 22.5 56t53.5 24q24 0 52 -16t55 -46z" />
    <glyph glyph-name="oacute" unicode="&#xf3;" horiz-adv-x="1219" 
d="M281 516q0 -182 93.5 -294.5t243.5 -112.5q141 0 230.5 100.5t89.5 259.5q0 171 -95.5 282t-242.5 111q-138 0 -228.5 -98.5t-90.5 -247.5zM66 475q0 110 41.5 206.5t121.5 172.5q77 72 180 112t214 40q115 0 208 -37t168 -113q74 -74 113 -166.5t39 -193.5
q0 -111 -41 -207.5t-121 -171.5q-76 -71 -179 -110.5t-214 -39.5q-117 0 -209 36t-168 112q-74 74 -113.5 167.5t-39.5 192.5zM434 1118l276 301q27 30 55 46t52 16q31 0 53.5 -24t22.5 -56q0 -26 -16.5 -46t-67.5 -52l-301 -185h-74z" />
    <glyph glyph-name="ocircumflex" unicode="&#xf4;" horiz-adv-x="1219" 
d="M281 516q0 -182 93.5 -294.5t243.5 -112.5q141 0 230.5 100.5t89.5 259.5q0 171 -95.5 282t-242.5 111q-138 0 -228.5 -98.5t-90.5 -247.5zM66 475q0 110 41.5 206.5t121.5 172.5q77 72 180 112t214 40q115 0 208 -37t168 -113q74 -74 113 -166.5t39 -193.5
q0 -111 -41 -207.5t-121 -171.5q-76 -71 -179 -110.5t-214 -39.5q-117 0 -209 36t-168 112q-74 74 -113.5 167.5t-39.5 192.5zM315 1118l227 348h134l229 -348h-74l-221 195l-221 -195h-74z" />
    <glyph glyph-name="otilde" unicode="&#xf5;" horiz-adv-x="1219" 
d="M281 516q0 -182 93.5 -294.5t243.5 -112.5q141 0 230.5 100.5t89.5 259.5q0 171 -95.5 282t-242.5 111q-138 0 -228.5 -98.5t-90.5 -247.5zM66 475q0 110 41.5 206.5t121.5 172.5q77 72 180 112t214 40q115 0 208 -37t168 -113q74 -74 113 -166.5t39 -193.5
q0 -111 -41 -207.5t-121 -171.5q-76 -71 -179 -110.5t-214 -39.5q-117 0 -209 36t-168 112q-74 74 -113.5 167.5t-39.5 192.5zM893 1432q-22 -112 -70.5 -170t-122.5 -58q-12 0 -25.5 1.5t-27.5 4.5l-107 25q-3 1 -8 2q-36 8 -45 8q-42 0 -65 -20t-37 -70h-58q24 117 72 174
t125 57q16 0 32.5 -2t30.5 -6l109 -28q9 -3 19 -3.5t32 -0.5q35 0 56.5 21t31.5 65h58z" />
    <glyph glyph-name="odieresis" unicode="&#xf6;" horiz-adv-x="1219" 
d="M281 516q0 -182 93.5 -294.5t243.5 -112.5q141 0 230.5 100.5t89.5 259.5q0 171 -95.5 282t-242.5 111q-138 0 -228.5 -98.5t-90.5 -247.5zM66 475q0 110 41.5 206.5t121.5 172.5q77 72 180 112t214 40q115 0 208 -37t168 -113q74 -74 113 -166.5t39 -193.5
q0 -111 -41 -207.5t-121 -171.5q-76 -71 -179 -110.5t-214 -39.5q-117 0 -209 36t-168 112q-74 74 -113.5 167.5t-39.5 192.5zM688 1280q0 45 34.5 79t80.5 34q45 0 77.5 -33.5t32.5 -79.5q0 -50 -31 -81.5t-79 -31.5q-49 0 -82 32.5t-33 80.5zM305 1280q0 45 33.5 79
t78.5 34q47 0 80 -33.5t33 -79.5q0 -49 -31.5 -81t-81.5 -32q-49 0 -80.5 32t-31.5 81z" />
    <glyph glyph-name="divide" unicode="&#xf7;" horiz-adv-x="1706" 
d="M854 367q51 0 88 -37t37 -88q0 -52 -36.5 -88.5t-88.5 -36.5q-53 0 -89 36t-36 89q0 51 37 88t88 37zM1452 680v-139h-1198v139h1198zM854 1106q51 0 88 -37.5t37 -89.5q0 -51 -36.5 -88t-88.5 -37t-88.5 36.5t-36.5 88.5t37 89.5t88 37.5z" />
    <glyph glyph-name="oslash" unicode="&#xf8;" horiz-adv-x="1219" 
d="M342 23l-109 -150h-141l154 217q-91 80 -135.5 175.5t-44.5 209.5q0 227 162 379t407 152q64 0 122 -14t115 -44l111 152h141l-155 -217q88 -75 135 -174.5t47 -212.5q0 -227 -161 -379t-402 -152q-64 0 -125.5 14.5t-120.5 43.5zM858 733l-418 -571q40 -27 83.5 -40
t94.5 -13q142 0 231 100t89 258q0 73 -20.5 141t-59.5 125zM356 244l418 571q-40 25 -83.5 37t-90.5 12q-140 0 -230.5 -101.5t-90.5 -260.5q0 -66 19 -130t58 -128z" />
    <glyph glyph-name="ugrave" unicode="&#xf9;" horiz-adv-x="1145" 
d="M819 131q-75 -80 -151 -118t-162 -38q-161 0 -263 99.5t-102 259.5v454q0 65 -16.5 109t-52.5 76h28q58 0 116 5.5t115 16.5l1 -555q0 -158 57 -230.5t182 -72.5q131 0 187.5 67t56.5 224v360q0 65 -16.5 109t-53.5 76h25q53 0 110.5 5.5t123.5 16.5v-788q0 -64 16 -107
t53 -75h-18q-44 0 -97 -6t-129 -19zM739 1118h-74l-301 185q-51 32 -67.5 52t-16.5 46q0 32 22.5 56t53.5 24q24 0 52 -16t55 -46z" />
    <glyph glyph-name="uacute" unicode="&#xfa;" horiz-adv-x="1145" 
d="M819 131q-75 -80 -151 -118t-162 -38q-161 0 -263 99.5t-102 259.5v454q0 65 -16.5 109t-52.5 76h28q58 0 116 5.5t115 16.5l1 -555q0 -158 57 -230.5t182 -72.5q131 0 187.5 67t56.5 224v360q0 65 -16.5 109t-53.5 76h25q53 0 110.5 5.5t123.5 16.5v-788q0 -64 16 -107
t53 -75h-18q-44 0 -97 -6t-129 -19zM387 1118l276 301q27 30 55 46t52 16q31 0 53.5 -24t22.5 -56q0 -26 -16.5 -46t-67.5 -52l-301 -185h-74z" />
    <glyph glyph-name="ucircumflex" unicode="&#xfb;" horiz-adv-x="1145" 
d="M819 131q-75 -80 -151 -118t-162 -38q-161 0 -263 99.5t-102 259.5v454q0 65 -16.5 109t-52.5 76h28q58 0 116 5.5t115 16.5l1 -555q0 -158 57 -230.5t182 -72.5q131 0 187.5 67t56.5 224v360q0 65 -16.5 109t-53.5 76h25q53 0 110.5 5.5t123.5 16.5v-788q0 -64 16 -107
t53 -75h-18q-44 0 -97 -6t-129 -19zM268 1118l227 348h134l229 -348h-74l-221 195l-221 -195h-74z" />
    <glyph glyph-name="udieresis" unicode="&#xfc;" horiz-adv-x="1145" 
d="M819 131q-75 -80 -151 -118t-162 -38q-161 0 -263 99.5t-102 259.5v454q0 65 -16.5 109t-52.5 76h28q58 0 116 5.5t115 16.5l1 -555q0 -158 57 -230.5t182 -72.5q131 0 187.5 67t56.5 224v360q0 65 -16.5 109t-53.5 76h25q53 0 110.5 5.5t123.5 16.5v-788q0 -64 16 -107
t53 -75h-18q-44 0 -97 -6t-129 -19zM641 1280q0 45 34.5 79t80.5 34q45 0 77.5 -33.5t32.5 -79.5q0 -50 -31 -81.5t-79 -31.5q-49 0 -82 32.5t-33 80.5zM258 1280q0 45 33.5 79t78.5 34q47 0 80 -33.5t33 -79.5q0 -49 -31.5 -81t-81.5 -32q-49 0 -80.5 32t-31.5 81z" />
    <glyph glyph-name="yacute" unicode="&#xfd;" horiz-adv-x="1004" 
d="M-106 -393l184 139q32 -19 61 -28t60 -9q80 0 144 75.5t112 225.5q-33 28 -63 76.5t-64 126.5l-250 569q-1 2 -2 5q-61 138 -142 186h269q25 -29 52 -92q2 -4 3 -7l277 -657l214 546q12 32 17.5 59.5t5.5 51.5q0 22 -13.5 46.5t-41.5 52.5h282l-428 -1090
q-63 -162 -174 -244.5t-266 -82.5q-54 0 -112.5 12.5t-124.5 38.5zM326 1118l276 301q27 30 55 46t52 16q31 0 53.5 -24t22.5 -56q0 -26 -16.5 -46t-67.5 -52l-301 -185h-74z" />
    <glyph glyph-name="thorn" unicode="&#xfe;" horiz-adv-x="1231" 
d="M74 -426q37 32 53 75t16 107v1465q0 70 -15 109.5t-52 72.5h26q40 0 95.5 6t132.5 18v-587q75 82 164.5 123t191.5 41q202 0 340.5 -142.5t138.5 -351.5q0 -137 -53.5 -250.5t-153.5 -187.5q-66 -50 -140 -74.5t-159 -24.5q-36 0 -75 5t-78 14l-121 176q62 -28 115 -41.5
t100 -13.5q164 0 257 96.5t93 267.5q0 166 -91.5 271.5t-233.5 105.5q-61 0 -114.5 -20.5t-96.5 -61.5q-44 -40 -62 -100.5t-18 -204.5v-61v-650q0 -64 16.5 -107t52.5 -75h-329z" />
    <glyph glyph-name="ydieresis" unicode="&#xff;" horiz-adv-x="1004" 
d="M-106 -393l184 139q32 -19 61 -28t60 -9q80 0 144 75.5t112 225.5q-33 28 -63 76.5t-64 126.5l-250 569q-1 2 -2 5q-61 138 -142 186h269q25 -29 52 -92q2 -4 3 -7l277 -657l214 546q12 32 17.5 59.5t5.5 51.5q0 22 -13.5 46.5t-41.5 52.5h282l-428 -1090
q-63 -162 -174 -244.5t-266 -82.5q-54 0 -112.5 12.5t-124.5 38.5zM580 1280q0 45 34.5 79t80.5 34q45 0 77.5 -33.5t32.5 -79.5q0 -50 -31 -81.5t-79 -31.5q-49 0 -82 32.5t-33 80.5zM197 1280q0 45 33.5 79t78.5 34q47 0 80 -33.5t33 -79.5q0 -49 -31.5 -81t-81.5 -32
q-49 0 -80.5 32t-31.5 81z" />
    <glyph glyph-name="Cacute" unicode="&#x106;" horiz-adv-x="1341" 
d="M1296 279l-104 -250q-98 -32 -184 -48t-164 -16q-116 0 -226 30t-208 89q-156 93 -243 255t-87 357q0 146 63 284t179 245q106 97 242 147.5t290 50.5q73 0 153.5 -13.5t172.5 -41.5v-223q-94 50 -178 74t-164 24q-233 0 -373.5 -144t-140.5 -382q0 -261 145.5 -421.5
t382.5 -160.5q97 0 206.5 35.5t237.5 108.5zM655 1536l276 301q27 30 55 46t52 16q31 0 53.5 -24t22.5 -56q0 -26 -16.5 -46t-67.5 -52l-301 -185h-74z" />
    <glyph glyph-name="cacute" unicode="&#x107;" horiz-adv-x="1032" 
d="M879 768q-74 46 -139.5 69t-123.5 23q-146 0 -234.5 -94.5t-88.5 -249.5q0 -168 111.5 -278.5t279.5 -110.5q71 0 148 22t174 70l-107 -184q-57 -36 -118.5 -53t-131.5 -17q-253 0 -417 144.5t-164 365.5q0 225 161 379t398 154q37 0 100 -6.5t152 -18.5v-215zM420 1118
l276 301q27 30 55 46t52 16q31 0 53.5 -24t22.5 -56q0 -26 -16.5 -46t-67.5 -52l-301 -185h-74z" />
    <glyph glyph-name="Ccaron" unicode="&#x10c;" horiz-adv-x="1341" 
d="M1296 279l-104 -250q-98 -32 -184 -48t-164 -16q-116 0 -226 30t-208 89q-156 93 -243 255t-87 357q0 146 63 284t179 245q106 97 242 147.5t290 50.5q73 0 153.5 -13.5t172.5 -41.5v-223q-94 50 -178 74t-164 24q-233 0 -373.5 -144t-140.5 -382q0 -261 145.5 -421.5
t382.5 -160.5q97 0 206.5 35.5t237.5 108.5zM536 1884h74l221 -196l221 196h74l-229 -350h-134z" />
    <glyph glyph-name="ccaron" unicode="&#x10d;" horiz-adv-x="1032" 
d="M879 768q-74 46 -139.5 69t-123.5 23q-146 0 -234.5 -94.5t-88.5 -249.5q0 -168 111.5 -278.5t279.5 -110.5q71 0 148 22t174 70l-107 -184q-57 -36 -118.5 -53t-131.5 -17q-253 0 -417 144.5t-164 365.5q0 225 161 379t398 154q37 0 100 -6.5t152 -18.5v-215zM301 1466
h74l221 -196l221 196h74l-229 -350h-134z" />
    <glyph glyph-name="dcroat" unicode="&#x111;" horiz-adv-x="1225" 
d="M891 0v492q0 82 -8.5 129.5t-28.5 87.5q-34 68 -105.5 108.5t-158.5 40.5q-132 0 -221.5 -100.5t-89.5 -249.5q0 -167 102 -279t254 -112q45 0 95.5 11t111.5 34l-121 -176q-44 -5 -84 -8t-68 -3q-219 0 -359 142.5t-140 371.5q0 213 143.5 360.5t347.5 147.5
q88 0 170 -29t160 -87v235h-332v115h332v18q0 55 -17 92t-53 62h27q49 0 104.5 5.5t130.5 18.5v-196h140v-115h-140v-934q0 -64 16.5 -106t53.5 -76h-262z" />
    <glyph glyph-name="Gbreve" unicode="&#x11e;" horiz-adv-x="1454" 
d="M1212 1159q-90 58 -177 85.5t-179 27.5q-241 0 -389 -156.5t-148 -413.5q0 -268 154.5 -424.5t417.5 -156.5q61 0 128.5 11.5t141.5 35.5v293q0 105 -18.5 155t-63.5 89h271v-676q-135 -31 -250.5 -46.5t-214.5 -15.5q-145 0 -261.5 28.5t-211.5 86.5
q-155 93 -243.5 253.5t-88.5 348.5q0 155 62 293.5t180 247.5q107 98 244.5 148t299.5 50q72 0 158.5 -10.5t187.5 -32.5v-221zM426 1848h65q18 -71 73.5 -102.5t162.5 -31.5t162 31.5t71 102.5h66q-22 -138 -97.5 -208.5t-201.5 -70.5q-127 0 -203.5 70.5t-97.5 208.5z" />
    <glyph glyph-name="gbreve" unicode="&#x11f;" horiz-adv-x="1094" 
d="M756 633q0 104 -74.5 174t-185.5 70q-104 0 -166 -57.5t-62 -151.5q0 -106 76 -178t186 -72q98 0 162 61t64 154zM1124 1018l-62 -156q-8 -1 -19 -1.5t-35 -0.5q-43 0 -100 4.5t-129 13.5q94 -51 139 -113.5t45 -143.5q0 -94 -57.5 -167.5t-164.5 -115.5
q-87 -35 -187 -46q-8 -1 -11 -1l-6 -1q-109 -15 -109 -59q0 -22 16.5 -31.5t55.5 -9.5q32 0 82.5 2.5t68.5 2.5q210 0 339.5 -84t129.5 -215q0 -167 -167.5 -274t-434.5 -107q-242 0 -399.5 85.5t-157.5 211.5q0 72 56 120t141 48q20 0 45.5 -5.5t60.5 -17.5
q-43 -6 -65.5 -33t-22.5 -74q0 -89 108.5 -154t266.5 -65q157 0 263 71.5t106 172.5q0 97 -91 148t-264 51q-14 0 -80 -2t-118 -2q-80 0 -123 28.5t-43 81.5q0 50 41.5 85.5t122.5 53.5q-137 29 -217 119t-80 211q0 164 130 260.5t357 96.5q57 0 165.5 -5.5t160.5 -5.5
q44 0 103 5.5t140 17.5zM246 1430h65q18 -71 73.5 -102.5t162.5 -31.5t162 31.5t71 102.5h66q-22 -138 -97.5 -208.5t-201.5 -70.5q-127 0 -203.5 70.5t-97.5 208.5z" />
    <glyph glyph-name="Idotaccent" unicode="&#x130;" horiz-adv-x="618" 
d="M418 246q0 -105 18.5 -155.5t63.5 -90.5h-381q45 40 63.5 90.5t18.5 155.5v899q0 105 -18.5 155t-63.5 89h381q-45 -39 -63.5 -89t-18.5 -155v-899zM192 1698q0 48 35 83.5t82 35.5q48 0 83.5 -35.5t35.5 -83.5q0 -51 -34 -85t-85 -34q-50 0 -83.5 34t-33.5 85z" />
    <glyph glyph-name="dotlessi" unicode="&#x131;" horiz-adv-x="492" 
d="M340 182q0 -64 16.5 -107t53.5 -75h-326q37 32 53.5 75t16.5 107v606q0 65 -17 109t-53 76q86 2 148 7.5t108 14.5v-813z" />
    <glyph glyph-name="Lslash" unicode="&#x141;" horiz-adv-x="1059" 
d="M113 0q44 40 63 90.5t19 155.5v321l-195 -135v148l195 137v428q0 105 -19 155t-63 89h381q-45 -39 -63.5 -89t-18.5 -155v-299l297 209v-150l-297 -207v-518q81 -12 145 -18t111 -6q105 0 200 28.5t185 87.5l-97 -272h-843z" />
    <glyph glyph-name="lslash" unicode="&#x142;" horiz-adv-x="471" 
d="M74 0q37 32 53 75t16 107v418l-139 -98v137l139 98v484q0 64 -16 107t-53 75h22q33 0 82 5t154 19v-577l141 98v-137l-141 -100v-529q0 -64 16.5 -107t52.5 -75h-327z" />
    <glyph glyph-name="OE" unicode="&#x152;" horiz-adv-x="2249" 
d="M850 1274q-232 0 -382.5 -159t-150.5 -406q0 -255 149 -423.5t372 -168.5q231 0 381.5 159.5t150.5 407.5q0 255 -149 422.5t-371 167.5zM1391 1200v189h657v-218q-51 39 -113 57.5t-143 18.5q-40 0 -89.5 -6.5t-115.5 -19.5v-392h340v-202q-23 28 -64.5 39.5
t-150.5 11.5h-125v-498q80 -12 143 -18t109 -6q107 0 203 29t184 87l-96 -272h-739v211q-117 -124 -251.5 -184t-297.5 -60q-160 0 -300 51t-241 146q-106 100 -162.5 237t-56.5 295q0 146 63 284t179 245q106 98 240.5 148t293.5 50q153 0 282.5 -54t250.5 -169z" />
    <glyph glyph-name="oe" unicode="&#x153;" horiz-adv-x="1989" 
d="M1906 510h-752q7 -183 115 -291t283 -108q76 0 162 25.5t191 80.5l-109 -188q-83 -31 -158.5 -46.5t-144.5 -15.5q-140 0 -255 51.5t-198 151.5q-86 -99 -200 -151t-244 -52q-115 0 -208 36.5t-169 111.5q-74 74 -113.5 167.5t-39.5 192.5q0 110 41.5 206.5t121.5 172.5
q77 72 180 112t214 40q127 0 229 -47.5t184 -145.5q77 98 182.5 149.5t231.5 51.5q208 0 331 -136t125 -368zM1690 645q-6 105 -76 170.5t-174 65.5q-114 0 -186 -63t-85 -173h521zM281 516q0 -182 93 -293.5t244 -111.5q141 0 230.5 100t89.5 258q0 171 -95.5 282
t-242.5 111q-138 0 -228.5 -98.5t-90.5 -247.5z" />
    <glyph glyph-name="Scedilla" unicode="&#x15e;" horiz-adv-x="1120" 
d="M109 31l-66 252q121 -81 235 -120.5t226 -39.5q143 0 230 61.5t87 159.5q0 28 -9 56t-26 53q-38 57 -255 163q-55 26 -85 41q-203 102 -278.5 188t-75.5 204q0 169 138 268.5t378 99.5q69 0 152 -9t180 -28v-233q-86 65 -173 97t-181 32q-119 0 -191.5 -51t-72.5 -133
q0 -73 57 -129t256 -150q11 -5 34 -16q168 -77 251 -142q62 -48 96.5 -117t34.5 -147q0 -179 -164 -303.5t-410 -124.5q-79 0 -170 17t-198 51zM299 -397l39 90q59 -38 119 -58t112 -20q57 0 84 22t27 68q0 43 -27.5 64.5t-81.5 21.5q-14 0 -29 -1.5t-32 -4.5v197h63v-115
q11 2 23.5 3t38.5 1q88 0 138 -44t50 -122q0 -84 -59.5 -131t-165.5 -47q-59 0 -132.5 18.5t-166.5 57.5z" />
    <glyph glyph-name="scedilla" unicode="&#x15f;" horiz-adv-x="948" 
d="M123 20l-80 222q113 -76 209 -113t182 -37q107 0 171.5 41.5t64.5 110.5q0 86 -219 173q-53 21 -82 34q-129 54 -187.5 120t-58.5 156q0 129 102 205t279 76q57 0 125 -8.5t143 -24.5v-174q-76 38 -148 58t-139 20q-76 0 -121 -32.5t-45 -86.5q0 -77 182 -143
q78 -28 124 -48q130 -55 191 -121t61 -153q0 -150 -129 -241t-347 -91q-79 0 -147 14t-131 43zM213 -397l39 90q59 -38 119 -58t112 -20q57 0 84 22t27 68q0 43 -27.5 64.5t-81.5 21.5q-14 0 -29 -1.5t-32 -4.5v197h63v-115q11 2 23.5 3t38.5 1q88 0 138 -44t50 -122
q0 -84 -59.5 -131t-165.5 -47q-59 0 -132.5 18.5t-166.5 57.5z" />
    <glyph glyph-name="Scaron" unicode="&#x160;" horiz-adv-x="1120" 
d="M109 31l-66 252q121 -81 235 -120.5t226 -39.5q143 0 230 61.5t87 159.5q0 28 -9 56t-26 53q-38 57 -255 163q-55 26 -85 41q-203 102 -278.5 188t-75.5 204q0 169 138 268.5t378 99.5q69 0 152 -9t180 -28v-233q-86 65 -173 97t-181 32q-119 0 -191.5 -51t-72.5 -133
q0 -73 57 -129t256 -150q11 -5 34 -16q168 -77 251 -142q62 -48 96.5 -117t34.5 -147q0 -179 -164 -303.5t-410 -124.5q-79 0 -170 17t-198 51zM266 1884h74l221 -196l221 196h74l-229 -350h-134z" />
    <glyph glyph-name="scaron" unicode="&#x161;" horiz-adv-x="948" 
d="M123 20l-80 222q113 -76 209 -113t182 -37q107 0 171.5 41.5t64.5 110.5q0 86 -219 173q-53 21 -82 34q-129 54 -187.5 120t-58.5 156q0 129 102 205t279 76q57 0 125 -8.5t143 -24.5v-174q-76 38 -148 58t-139 20q-76 0 -121 -32.5t-45 -86.5q0 -77 182 -143
q78 -28 124 -48q130 -55 191 -121t61 -153q0 -150 -129 -241t-347 -91q-79 0 -147 14t-131 43zM180 1466h74l221 -196l221 196h74l-229 -350h-134z" />
    <glyph glyph-name="Ydieresis" unicode="&#x178;" horiz-adv-x="1016" 
d="M616 246q0 -105 19 -155.5t63 -90.5h-383q45 40 63.5 90.5t18.5 155.5v383l-340 551q-39 62 -84.5 113.5t-101.5 95.5h307l361 -605l243 394q22 36 33.5 65.5t11.5 50.5q0 24 -14.5 47.5t-44.5 47.5h324l-476 -764v-379zM586 1698q0 45 34.5 79t80.5 34q45 0 77.5 -33.5
t32.5 -79.5q0 -50 -31 -81.5t-79 -31.5q-49 0 -82 32.5t-33 80.5zM203 1698q0 45 33.5 79t78.5 34q47 0 80 -33.5t33 -79.5q0 -49 -31.5 -81t-81.5 -32q-49 0 -80.5 32t-31.5 81z" />
    <glyph glyph-name="Zcaron" unicode="&#x17d;" horiz-adv-x="1194" 
d="M1180 260l-101 -260h-1083l739 1210q-83 21 -156.5 31t-136.5 10q-92 0 -177.5 -22.5t-174.5 -71.5l96 232h901l-739 -1209q123 -14 207 -20t145 -6q144 0 263 26.5t217 79.5zM303 1884h74l221 -196l221 196h74l-229 -350h-134z" />
    <glyph glyph-name="zcaron" unicode="&#x17e;" horiz-adv-x="1020" 
d="M18 0l566 823q-43 6 -84 9.5t-80 3.5q-100 0 -187.5 -20t-160.5 -60l102 217h729l-538 -809q68 -7 131.5 -10.5t117.5 -3.5q123 0 221.5 20.5t172.5 62.5l-119 -233h-871zM215 1466h74l221 -196l221 196h74l-229 -350h-134z" />
    <glyph glyph-name="florin" unicode="&#x192;" horiz-adv-x="1214" 
d="M246 608l35 170h213l36 176q47 234 160.5 344.5t308.5 110.5q28 0 59.5 -2.5t69.5 -8.5l-112 -161q-26 13 -50.5 20t-45.5 7q-71 0 -113 -64t-80 -250l-37 -172h260l-35 -170q-22 18 -54.5 26.5t-78.5 8.5h-118l-115 -569q-46 -234 -96.5 -338t-133.5 -164
q-51 -38 -116 -57t-144 -19q-27 0 -58.5 2.5t-69.5 8.5l106 161q29 -12 54 -18t46 -6q68 0 108.5 54.5t65.5 182.5l156 762h-61q-44 0 -84 -8.5t-76 -26.5z" />
    <glyph glyph-name="circumflex" unicode="&#x2c6;" 
d="M217 1118l227 348h134l229 -348h-74l-221 195l-221 -195h-74z" />
    <glyph glyph-name="caron" unicode="&#x2c7;" 
d="M217 1466h74l221 -196l221 196h74l-229 -350h-134z" />
    <glyph glyph-name="breve" unicode="&#x2d8;" 
d="M211 1430h65q18 -71 73.5 -102.5t162.5 -31.5t162 31.5t71 102.5h66q-22 -138 -97.5 -208.5t-201.5 -70.5q-127 0 -203.5 70.5t-97.5 208.5z" />
    <glyph glyph-name="dotaccent" unicode="&#x2d9;" 
d="M395 1280q0 48 35 83.5t82 35.5q48 0 83.5 -35.5t35.5 -83.5q0 -51 -34 -85t-85 -34q-50 0 -83.5 34t-33.5 85z" />
    <glyph glyph-name="ring" unicode="&#x2da;" 
d="M371 1343q0 -59 40.5 -99t100.5 -40t100.5 40t40.5 99q0 61 -40.5 102.5t-100.5 41.5t-100.5 -41.5t-40.5 -102.5zM264 1346q0 104 72 175.5t176 71.5t176 -71.5t72 -175.5q0 -105 -72 -176.5t-176 -71.5t-176 71.5t-72 176.5z" />
    <glyph glyph-name="ogonek" unicode="&#x2db;" 
d="M631 35q-84 -65 -129 -131.5t-45 -124.5q0 -60 23.5 -92.5t66.5 -32.5q37 0 67 17.5t58 54.5l28 -17q-36 -75 -92.5 -115t-126.5 -40q-72 0 -114.5 41t-42.5 110q0 84 64 165t196 165h47z" />
    <glyph glyph-name="tilde" unicode="&#x2dc;" 
d="M795 1432q-22 -112 -70.5 -170t-122.5 -58q-12 0 -25.5 1.5t-27.5 4.5l-107 25q-3 1 -8 2q-36 8 -45 8q-42 0 -65 -20t-37 -70h-58q24 117 72 174t125 57q16 0 32.5 -2t30.5 -6l109 -28q9 -3 19 -3.5t32 -0.5q35 0 56.5 21t31.5 65h58z" />
    <glyph glyph-name="hungarumlaut" unicode="&#x2dd;" 
d="M567 1116l174 285q23 38 47 56t52 18q31 0 51 -20.5t20 -53.5q0 -22 -15.5 -45.5t-47.5 -50.5l-221 -189h-60zM322 1116l133 275q20 43 43.5 64.5t52.5 21.5q28 0 50 -21.5t22 -50.5q0 -19 -12 -39.5t-44 -54.5l-184 -195h-61z" />
    <glyph glyph-name="Omega" unicode="&#x3a9;" horiz-adv-x="1565" 
d="M1487 178v-178h-600v178q177 97 276 263t99 368q0 240 -132 385t-348 145t-348.5 -145.5t-132.5 -384.5q0 -202 99.5 -368t277.5 -263v-178h-600v178h319q-158 139 -230.5 288t-72.5 333q0 318 191.5 515t496.5 197q303 0 495.5 -196.5t192.5 -505.5q0 -194 -71 -342
t-232 -289h320z" />
    <glyph glyph-name="pi" unicode="&#x3c0;" horiz-adv-x="1206" 
d="M1159 913h-182l-105 -487q-15 -74 -22.5 -120t-7.5 -68q0 -58 23.5 -82.5t78.5 -24.5q17 0 40 2.5t60 7.5l-30 -141q-30 -8 -57.5 -12t-53.5 -4q-118 0 -178.5 51t-60.5 151q0 46 10.5 118t44.5 233l80 376h-326l-194 -913h-181l195 913h-41q-54 0 -84 -32t-39 -101h-160
q28 166 99.5 228.5t236.5 62.5h889z" />
    <glyph glyph-name="endash" unicode="&#x2013;" 
d="M0 420v131h1024v-131h-1024z" />
    <glyph glyph-name="emdash" unicode="&#x2014;" horiz-adv-x="2048" 
d="M0 420v131h2048v-131h-2048z" />
    <glyph glyph-name="quoteleft" unicode="&#x2018;" horiz-adv-x="606" 
d="M313 1251q51 -6 80 -36.5t29 -77.5q0 -54 -35 -91.5t-84 -37.5q-53 0 -86 40t-33 105t38 135.5t110 138.5l90 -10q-44 -51 -69.5 -90.5t-39.5 -75.5z" />
    <glyph glyph-name="quoteright" unicode="&#x2019;" horiz-adv-x="606" 
d="M295 1182q-51 6 -81 36.5t-30 77.5q0 54 35 91.5t84 37.5q53 0 87 -40t34 -105q0 -63 -38 -132.5t-112 -139.5l-90 8q48 55 73 93.5t38 72.5z" />
    <glyph glyph-name="quotesinglbase" unicode="&#x201a;" horiz-adv-x="606" 
d="M295 -6q-51 6 -81 37t-30 78q0 53 35 91t84 38q53 0 87 -40.5t34 -105.5q0 -64 -38.5 -134t-111.5 -140l-90 10q45 51 72.5 92.5t38.5 73.5z" />
    <glyph glyph-name="quotedblleft" unicode="&#x201c;" horiz-adv-x="932" 
d="M313 1251q51 -6 80 -36.5t29 -77.5q0 -54 -35 -91.5t-84 -37.5q-53 0 -87 40t-34 105q0 64 38.5 134.5t111.5 139.5l90 -10q-44 -51 -69.5 -90.5t-39.5 -75.5zM639 1251q51 -6 81 -36.5t30 -77.5q0 -54 -36 -91.5t-85 -37.5q-53 0 -86 40t-33 105t37.5 135.5t109.5 138.5
l91 -10q-45 -51 -70.5 -90.5t-38.5 -75.5z" />
    <glyph glyph-name="quotedblright" unicode="&#x201d;" horiz-adv-x="932" 
d="M621 1184q-52 6 -81.5 37t-29.5 77q0 54 35 91.5t84 37.5q53 0 87 -40t34 -105q0 -64 -38.5 -134.5t-111.5 -139.5l-90 10q48 55 73 93.5t38 72.5zM293 1184q-51 6 -80 36.5t-29 77.5q0 54 35 91.5t84 37.5q53 0 86 -40t33 -105t-38 -135t-110 -139l-90 10q44 51 70 90.5
t39 75.5z" />
    <glyph glyph-name="quotedblbase" unicode="&#x201e;" horiz-adv-x="932" 
d="M621 -6q-52 6 -81.5 37t-29.5 78q0 53 35 91t84 38q53 0 87 -40.5t34 -105.5q0 -64 -38.5 -134t-111.5 -140l-90 10q44 51 72 92.5t39 73.5zM289 -6q-50 6 -80.5 35.5t-30.5 70.5q0 55 35.5 96.5t85.5 41.5q53 0 86 -40.5t33 -105.5q0 -64 -38 -134.5t-110 -139.5l-90 10
q43 48 70 90t39 76z" />
    <glyph glyph-name="dagger" unicode="&#x2020;" horiz-adv-x="1214" 
d="M778 1389q-49 -39 -69.5 -86t-20.5 -127v-193h129q74 0 136 18.5t98 51.5l-45 -211h-318v-1161h-162v1161h-129q-75 0 -137 -19t-96 -51l49 211h313v193q0 81 -21 128t-71 85h344z" />
    <glyph glyph-name="daggerdbl" unicode="&#x2021;" horiz-adv-x="1214" 
d="M526 840h-129q-75 0 -137 -19t-96 -51l51 213h311v193q0 79 -21 126.5t-71 86.5h344q-49 -39 -69.5 -86t-20.5 -127v-193h129q74 0 136 18.5t98 51.5l-47 -213h-316v-539h129q74 0 136 18.5t98 51.5l-47 -209h-316v-266q0 -82 21 -130t69 -85h-344q50 38 71 86.5
t21 128.5v266h-129q-75 0 -137 -19t-96 -51l49 209h313v539z" />
    <glyph glyph-name="bullet" unicode="&#x2022;" horiz-adv-x="1208" 
d="M307 762q0 123 87 209t210 86q122 0 208.5 -86.5t86.5 -208.5t-87.5 -209.5t-209.5 -87.5q-123 0 -209 87t-86 210z" />
    <glyph glyph-name="ellipsis" unicode="&#x2026;" horiz-adv-x="2048" 
d="M215 98q0 53 37 90t90 37q52 0 89.5 -37t37.5 -90q0 -52 -37.5 -89.5t-89.5 -37.5q-53 0 -90 37.5t-37 89.5zM897 98q0 53 37 90t90 37q52 0 89.5 -37t37.5 -90q0 -52 -37.5 -89.5t-89.5 -37.5q-53 0 -90 37.5t-37 89.5zM1581 98q0 53 37 90t90 37q52 0 89.5 -37
t37.5 -90q0 -52 -37.5 -89.5t-89.5 -37.5q-53 0 -90 37.5t-37 89.5z" />
    <glyph glyph-name="perthousand" unicode="&#x2030;" horiz-adv-x="2165" 
d="M352 745q-135 0 -218 91t-83 241t82.5 240t218.5 90t218.5 -90t82.5 -240t-82.5 -241t-218.5 -91zM225 1073q0 -107 32 -161t95 -54t95 54t32 161t-32 161t-95 54t-95 -54t-32 -161zM299 -29l725 1436h125l-725 -1436h-125zM1092 -29q-136 0 -220 91.5t-84 240.5
q0 150 84 241t220 91q135 0 217 -90.5t82 -241.5q0 -150 -82 -241t-217 -91zM965 303q0 -108 31 -161.5t94 -53.5t95 54t32 161t-32 161t-95 54t-94 -53.5t-31 -161.5zM1808 -29q-136 0 -219.5 91.5t-83.5 240.5q0 150 83.5 241t219.5 91q135 0 217 -90.5t82 -241.5
q0 -150 -82 -241t-217 -91zM1679 303q0 -107 32 -161t95 -54q64 0 95.5 54t31.5 161t-31.5 161t-95.5 54q-63 0 -95 -54t-32 -161z" />
    <glyph glyph-name="guilsinglleft" unicode="&#x2039;" horiz-adv-x="428" 
d="M301 135l-235 359l239 360h70l-127 -360l125 -359h-72z" />
    <glyph glyph-name="guilsinglright" unicode="&#x203a;" horiz-adv-x="428" 
d="M127 854l235 -360l-239 -359h-68l125 359l-125 360h72z" />
    <glyph glyph-name="franc" unicode="&#x20a3;" horiz-adv-x="1671" 
d="M412 246q0 -105 18.5 -155.5t63.5 -90.5h-381q44 40 63 90.5t19 155.5v899q0 105 -19 155t-63 89h761v-218q-51 40 -112 58t-141 18q-41 0 -92 -6.5t-115 -19.5v-392h340v-202q-24 28 -65 39.5t-150 11.5h-127v-432zM1620 791q-23 17 -47 24.5t-53 7.5
q-106 0 -161.5 -71.5t-55.5 -206.5v-363q0 -64 16.5 -107t52.5 -75h-327q37 32 53 75t16 107v606q0 65 -16.5 109t-52.5 76h22q49 0 103.5 5.5t119.5 16.5l15 -155q44 78 101 115.5t130 37.5q18 0 37 -2t47 -8v-192z" />
    <glyph glyph-name="trademark" unicode="&#x2122;" horiz-adv-x="1706" 
d="M963 1458l151 -385l141 385h150v-538h-98v444l-166 -444h-56l-174 444v-444h-98v538h150zM694 1458v-80h-172v-458h-108v458h-172v80h452z" />
    <glyph glyph-name="partialdiff" unicode="&#x2202;" horiz-adv-x="1059" 
d="M756 621q15 87 22.5 168.5t7.5 156.5q0 129 -36.5 194.5t-108.5 65.5q-55 0 -127 -58t-108 -58t-60 22t-24 53q0 62 72 111t173 49q180 0 287 -155t107 -418q0 -335 -144.5 -556t-357.5 -221q-152 0 -253.5 108t-101.5 271q0 198 110.5 326.5t272.5 128.5
q101 0 166 -45.5t103 -142.5zM707 494q0 116 -43.5 178.5t-122.5 62.5q-109 0 -179.5 -129t-70.5 -336q0 -116 43 -177.5t123 -61.5q109 0 179.5 130t70.5 333z" />
    <glyph glyph-name="Delta" unicode="&#x2206;" horiz-adv-x="1370" 
d="M1102 178l-418 1084l-418 -1084h836zM797 1473l579 -1473h-1382l579 1473h224z" />
    <glyph glyph-name="product" unicode="&#x220f;" horiz-adv-x="1550" 
d="M156 1473h1237v-1866h-240v1661h-758v-1661h-239v1866z" />
    <glyph glyph-name="summation" unicode="&#x2211;" horiz-adv-x="1380" 
d="M55 1473h1258v-193h-959l672 -717l-694 -764h1007v-192h-1314v149l725 801l-695 739v177z" />
    <glyph glyph-name="minus" unicode="&#x2212;" horiz-adv-x="1706" 
d="M1452 682v-141h-1198v141h1198z" />
    <glyph glyph-name="fraction" unicode="&#x2215;" horiz-adv-x="342" 
d="M-254 -29l725 1436h125l-725 -1436h-125z" />
    <glyph glyph-name="periodcentered" unicode="&#x2219;" horiz-adv-x="606" 
d="M176 690q0 53 37 89t90 36t90 -36.5t37 -88.5t-37.5 -89.5t-89.5 -37.5q-53 0 -90 37t-37 90z" />
    <glyph glyph-name="radical" unicode="&#x221a;" horiz-adv-x="1305" 
d="M1305 1661v-96h-115l-594 -1606h-66l-319 883l-125 -45l-25 80l283 98l256 -709l516 1395h189z" />
    <glyph glyph-name="infinity" unicode="&#x221e;" horiz-adv-x="1706" 
d="M915 559q50 -89 116.5 -133.5t150.5 -44.5q101 0 165 67.5t64 172.5q0 101 -59 168t-148 67q-81 0 -146.5 -66.5t-142.5 -230.5zM793 666q-49 88 -115.5 132t-151.5 44q-101 0 -165 -66.5t-64 -171.5q0 -101 59 -168t148 -67q81 0 146.5 66t142.5 231zM842 737
q68 138 147 203.5t176 65.5q133 0 227.5 -113t94.5 -279q0 -174 -83.5 -281.5t-217.5 -107.5q-95 0 -168.5 58.5t-153.5 199.5q-71 -136 -148.5 -199t-172.5 -63q-135 0 -228.5 112t-93.5 277q0 175 83.5 283t217.5 108q95 0 170 -61.5t150 -202.5z" />
    <glyph glyph-name="integral" unicode="&#x222b;" horiz-adv-x="1067" 
d="M311 -262q106 0 120 688q2 108 3 165q12 515 107 737t297 222q80 0 130 -42t50 -107q0 -54 -32 -85.5t-87 -31.5q-42 0 -70 19t-40 54q-6 15 -10.5 51t-20.5 36q-107 0 -121 -619q-4 -193 -8 -303q-17 -479 -111.5 -686t-290.5 -207q-79 0 -129.5 41.5t-50.5 106.5
q0 56 34 87.5t95 31.5q33 0 57 -14.5t39 -42.5q10 -18 15 -59.5t24 -41.5z" />
    <glyph glyph-name="approxequal" unicode="&#x2248;" horiz-adv-x="1706" 
d="M1530 430q-105 -73 -199.5 -107t-189.5 -34t-285 67.5t-293 67.5q-82 0 -171.5 -36t-213.5 -122v156q108 73 204 109t183 36q115 0 305 -68.5t273 -68.5q88 0 177 35.5t210 120.5v-156zM1530 799q-105 -73 -199.5 -107.5t-189.5 -34.5t-285 68t-293 68q-83 0 -171.5 -36
t-213.5 -122v156q106 72 202 107.5t185 35.5q116 0 305.5 -67.5t272.5 -67.5q87 0 175 34.5t212 120.5v-155z" />
    <glyph glyph-name="notequal" unicode="&#x2260;" horiz-adv-x="1706" 
d="M1313 1112l-187 -235h326v-136h-416l-205 -262h621v-135h-709l-249 -317l-105 84l184 233h-319v135h408l204 262h-612v136h702l252 317z" />
    <glyph glyph-name="lessequal" unicode="&#x2264;" horiz-adv-x="1706" 
d="M1446 162v-139h-1184v139h1184zM1444 1059l-936 -309l936 -306v-149l-1182 395v121l1182 395v-147z" />
    <glyph glyph-name="greaterequal" unicode="&#x2265;" horiz-adv-x="1706" 
d="M1446 162v-139h-1184v139h1184zM1446 811v-121l-1184 -395v149l938 306l-938 309v147z" />
    <glyph glyph-name="lozenge" unicode="&#x25ca;" horiz-adv-x="1012" 
d="M506 1409l-385 -817l385 -825l385 825zM506 1653l500 -1061l-500 -1069l-500 1069z" />
    <glyph glyph-name="apple" unicode="&#xf000;" horiz-adv-x="1618" 
d="M836 1216q-1 6 -1.5 14t-0.5 23q0 124 95 229.5t236 131.5q1 -10 1.5 -23t0.5 -39q0 -131 -103.5 -234.5t-203.5 -103.5h-8q-3 0 -7.5 1t-8.5 1zM1505 403q-114 -247 -205 -342.5t-204 -95.5q-50 0 -131.5 33t-122.5 33q-45 0 -131 -33t-127 -33q-64 0 -128.5 44
t-129.5 132q-102 140 -157.5 295.5t-55.5 300.5q0 219 125 356.5t323 137.5q68 0 155 -34t124 -34q34 0 121.5 35t152.5 35q110 0 198 -40t161 -124q-102 -65 -151.5 -145.5t-49.5 -182.5q0 -113 60 -200t173 -138z" />
    <glyph glyph-name="fi" unicode="&#xf001;" horiz-adv-x="1079" 
d="M705 1233q0 51 36 87t86 36q51 0 87 -36t36 -87q0 -52 -35.5 -87.5t-87.5 -35.5q-51 0 -86.5 36t-35.5 87zM940 182q0 -64 16.5 -107t53.5 -75h-328q37 32 53.5 75t16.5 107v606q0 65 -17 109t-53 76h27q39 0 96 5.5t135 16.5v-813zM365 182q0 -64 16 -107t53 -75h-328
q37 32 53.5 75t16.5 107v649h-110l110 142q0 8 -1 24t-1 23q0 207 107.5 308.5t326.5 101.5q26 0 55.5 -2t57.5 -5l-112 -142q-32 6 -58 9.5t-47 3.5q-76 0 -107.5 -44t-31.5 -152v-125h245v-142h-245v-649z" />
    <glyph glyph-name="fl" unicode="&#xf002;" horiz-adv-x="1079" 
d="M752 1221q0 55 -11 93t-34 64l16 25q41 1 95 7.5t122 16.5v-1245q0 -64 16.5 -107t53.5 -75h-328q37 32 53.5 75t16.5 107v1039zM365 182q0 -64 16 -107t53 -75h-328q37 32 53.5 75t16.5 107v649h-110l110 142q0 8 -1 24t-1 23q0 205 106 306t320 101q16 0 34.5 -0.5
t59.5 -3.5l-113 -143q-24 7 -46 10.5t-43 3.5q-67 0 -97 -46.5t-30 -149.5v-125h245v-142h-245v-649z" />
    </font>
</defs>
</svg>
